<?xml version="1.0" encoding="UTF-8" standalone="no"?>
<!-- Created with Inkscape (http://www.inkscape.org/) -->

<svg
   width="50mm"
   height="50mm"
   viewBox="0 0 50 50"
   version="1.1"
   id="svg1"
   xml:space="preserve"
   sodipodi:docname="drawinghandnew.svg"
   inkscape:export-filename="drawinghand.svg"
   inkscape:export-xdpi="96"
   inkscape:export-ydpi="96"
   inkscape:version="1.3 (0e150ed, 2023-07-21)"
   xmlns:inkscape="http://www.inkscape.org/namespaces/inkscape"
   xmlns:sodipodi="http://sodipodi.sourceforge.net/DTD/sodipodi-0.dtd"
   xmlns:xlink="http://www.w3.org/1999/xlink"
   xmlns="http://www.w3.org/2000/svg"
   xmlns:svg="http://www.w3.org/2000/svg"><sodipodi:namedview
     id="namedview1"
     pagecolor="#ffffff"
     bordercolor="#000000"
     borderopacity="0.25"
     inkscape:showpageshadow="2"
     inkscape:pageopacity="0.0"
     inkscape:pagecheckerboard="0"
     inkscape:deskcolor="#d1d1d1"
     inkscape:document-units="mm"
     showgrid="true"
     inkscape:zoom="2.2898334"
     inkscape:cx="138.21966"
     inkscape:cy="249.36312"
     inkscape:window-width="1296"
     inkscape:window-height="1381"
     inkscape:window-x="2536"
     inkscape:window-y="31"
     inkscape:window-maximized="0"
     inkscape:current-layer="layer2"><inkscape:grid
       id="grid1"
       units="mm"
       originx="0"
       originy="0"
       spacingx="0.99999998"
       spacingy="1"
       empcolor="#0099e5"
       empopacity="0.30196078"
       color="#0099e5"
       opacity="0.14901961"
       empspacing="5"
       dotted="false"
       gridanglex="30"
       gridanglez="30"
       visible="true" /></sodipodi:namedview><defs
     id="defs1"><linearGradient
       id="linearGradient24"><stop
         style="stop-color:#ffffff;stop-opacity:1;"
         offset="0"
         id="stop24" /><stop
         style="stop-color:#ffffff;stop-opacity:0;"
         offset="1"
         id="stop25" /></linearGradient><linearGradient
       id="linearGradient22"><stop
         style="stop-color:#ffffff;stop-opacity:0.53231937;"
         offset="0"
         id="stop22" /><stop
         style="stop-color:#ffffff;stop-opacity:0;"
         offset="1"
         id="stop23" /></linearGradient><linearGradient
       id="linearGradient20"><stop
         style="stop-color:#f1e6cd;stop-opacity:1;"
         offset="0"
         id="stop20" /><stop
         style="stop-color:#f1e6cb;stop-opacity:0;"
         offset="1"
         id="stop21" /></linearGradient><linearGradient
       xlink:href="#linearGradient20"
       id="linearGradient21"
       x1="64.587685"
       y1="114.21029"
       x2="64.576653"
       y2="186.03798"
       gradientUnits="userSpaceOnUse"
       gradientTransform="matrix(0.25570804,-0.08351237,0.08308458,0.25702465,-10.033218,-1.6627204)" /><linearGradient
       xlink:href="#linearGradient22"
       id="linearGradient23"
       x1="74.996613"
       y1="167.53926"
       x2="75.081108"
       y2="215.72182"
       gradientUnits="userSpaceOnUse"
       gradientTransform="matrix(0.25570804,-0.08351237,0.08308458,0.25702465,-10.033218,-1.6627204)" /><radialGradient
       xlink:href="#linearGradient24"
       id="radialGradient25-1"
       cx="24.847748"
       cy="40.363537"
       fx="24.847748"
       fy="40.363537"
       r="15.403356"
       gradientTransform="matrix(0.39250704,0,0,0.39847332,-3.7069904,-5.1484739)"
       gradientUnits="userSpaceOnUse" /></defs><g
     inkscape:groupmode="layer"
     id="layer2"
     inkscape:label="everything else"
     style="display:inline"><ellipse
       style="fill:url(#radialGradient25-1);stroke:none;stroke-width:1.07688;stroke-linecap:round;stroke-linejoin:round;stroke-dasharray:none;stroke-opacity:1"
       id="path23"
       cx="6.0459256"
       cy="10.935319"
       rx="6.0459256"
       ry="6.137826" /><path
       style="fill:url(#linearGradient21);fill-opacity:1;stroke:none;stroke-width:0.728622;stroke-linecap:round;stroke-linejoin:round;stroke-dasharray:none;stroke-opacity:1"
       d="m 12.753852,7.007428 c 0,0 -0.480519,-1.4426946 0.09663,-2.2671953 C 13.427626,3.9157324 21.970856,2.4072 21.970856,2.4072 c 0,0 3.802283,0.5072284 5.442837,1.6674606 1.640553,1.1602319 4.131173,3.1558549 4.131173,3.1558549 l -6.361063,0.2224492 2.006149,7.3479233 10.367219,0.01116 c 0,0 1.117119,1.750212 1.26968,2.5484 0.152558,0.798186 0.0886,11.366229 -0.04621,12.417271 -0.134808,1.051044 -6.230958,4.035823 -6.230958,4.035823 l -5.818201,3.725003 -0.992477,-0.341033 c 0,0 -3.657159,-3.291109 -4.617956,-6.263365 -0.9608,-2.972263 -1.035723,-5.65083 -1.035723,-5.65083 0,0 -2.931906,-0.261479 -3.349113,-1.715246 -0.417209,-1.453765 -0.168704,-2.903154 1.025652,-3.515016 0.491042,-0.251558 -2.803749,0.342971 -3.01646,-1.664885 -0.119799,-1.130836 0.484317,-3.232222 1.199729,-3.465868 0.715411,-0.233649 3.536432,0.01105 3.536432,0.01105 L 18.456674,7.8479657 18.000046,7.4140883 Z"
       id="path17"
       sodipodi:nodetypes="cscsccccsscccscsssscccc" /><path
       style="display:inline;fill:none;stroke:#000000;stroke-width:0.728616;stroke-linecap:round;stroke-linejoin:round;stroke-dasharray:none;stroke-opacity:1"
       d="M 29.342758,22.602398 C 28.406747,19.402937 25.695325,9.9165366 24.92538,7.2061697 24.213178,4.6990688 22.697778,4.285836 21.216931,4.4921456 20.104646,4.6471077 18.133274,5.7056329 18.434317,7.849345 c 0.284433,2.0254401 1.688685,9.90373 2.253624,12.593448 0.086,0.409428 -0.08114,0.964498 -0.08114,0.964498 0,0 -0.625932,3.880855 -0.440514,5.524342 0.193402,1.714266 0.869302,4.208616 2.021976,6.103105 1.152674,1.894492 4.071469,4.644543 4.071469,4.644543"
       id="path1" /><path
       style="fill:none;stroke:#000000;stroke-width:0.728616;stroke-linecap:round;stroke-linejoin:round;stroke-dasharray:none;stroke-opacity:1"
       d="M 12.858483,7.4991652 C 12.528487,6.9864454 11.869109,4.454099 14.519763,3.8277704 17.022523,3.2363879 20.955778,2.5827006 21.473326,2.51241 c 0.51755,-0.070291 2.067951,0.01578 2.789827,0.273704 0.721879,0.2579231 4.008093,1.3075109 7.468502,4.7192571"
       id="path2" /><path
       style="fill:#ffffad;fill-opacity:1;stroke:#000000;stroke-width:0.728616;stroke-linecap:round;stroke-linejoin:round;stroke-dasharray:none;stroke-opacity:1"
       d="m 39.692033,7.1544255 c 0.450788,0.014095 3.627712,0.026233 3.814417,0.033558 0.193264,0.00758 0.33853,0.181088 0.347559,0.3769754 0.01081,0.2345079 0.100062,7.1488681 0.08997,7.4015101 -0.0085,0.212726 -0.187223,0.338539 -0.381103,0.352492 -0.237577,0.01711 -3.799788,0.09291 -4.008062,0.07614 -0.199122,-0.01603 -0.385642,-0.319103 -0.384954,-0.540145 L 39.1444,7.6517743 c 0,0 0.09684,-0.5114441 0.547624,-0.4973492 z"
       id="path5"
       sodipodi:nodetypes="zssscscczz" /><path
       style="fill:#ff8484;fill-opacity:1;stroke:#000000;stroke-width:0.728616;stroke-linecap:round;stroke-linejoin:round;stroke-dasharray:none;stroke-opacity:1"
       d="m 43.847631,7.7204386 c 0,0 2.824769,-0.065241 3.698287,0.00397 0.773155,0.061264 1.654292,0.9189533 1.817409,1.7910143 0.209883,1.1220801 0.320455,2.1994121 0.07486,3.5230871 -0.185314,0.998766 -0.682334,1.40106 -1.525489,1.628147 -0.870501,0.234452 -3.964957,0.137026 -3.964957,0.137026 z"
       id="path6" /><path
       style="fill:#ffdca1;fill-opacity:1;stroke:#000000;stroke-width:0.728616;stroke-linecap:round;stroke-linejoin:round;stroke-dasharray:none;stroke-opacity:1"
       d="M 12.555011,7.5466006 8.8489931,9.3018319 C 9.0679751,9.682143 9.5151132,10.385195 9.4905485,11.269205 9.4631584,12.254903 8.9053691,12.9627 8.9053691,12.9627 l 3.6275749,1.800258 c 0.50855,-0.341738 1.33984,-1.953213 1.19334,-3.821103 C 13.565013,8.8856135 12.55501,7.5466011 12.55501,7.5466011 Z"
       id="path7" /><path
       style="fill:none;stroke:#000000;stroke-width:0.728616;stroke-linecap:round;stroke-linejoin:round;stroke-dasharray:none;stroke-opacity:1"
       d="m 16.866965,14.853144 c -1.286992,0.328175 -1.906436,1.482101 -2.085976,2.320957 -0.151569,0.708168 -0.072,2.287943 1.247611,2.814263 0.905079,0.360984 1.790884,0.180007 4.377295,-0.827308"
       id="path9" /><path
       style="fill:none;stroke:#000000;stroke-width:0.728616;stroke-linecap:round;stroke-linejoin:round;stroke-dasharray:none;stroke-opacity:1"
       d="m 20.065201,25.330043 c 0,0 -2.442626,-0.01481 -3.174538,-1.707658 -0.567235,-1.311972 -0.0422,-2.275476 0.430793,-2.905387 0.562176,-0.747348 2.03616,-1.150072 3.063231,-1.502756"
       id="path10" /><path
       style="fill:url(#linearGradient23);fill-opacity:0.469027;stroke:#000000;stroke-width:0.728616;stroke-linecap:round;stroke-linejoin:round;stroke-dasharray:none;stroke-opacity:1"
       d="m 25.183275,38.438181 c -0.353235,0.241839 -0.466279,0.893076 -0.236653,1.269783 0.229625,0.376709 5.133466,8.206668 5.320829,8.452633 0.187366,0.245969 0.957999,0.572463 1.452282,0.26649 0.494285,-0.305977 14.731779,-9.256033 15.04152,-9.465602 0.30974,-0.209567 0.440275,-1.029124 0.108636,-1.498989 -0.331643,-0.469865 -4.83922,-7.796867 -5.128596,-8.13599 -0.28938,-0.339126 -1.077505,-0.497293 -1.593739,-0.148014 -0.516238,0.349279 -14.964279,9.259689 -14.964279,9.259689 z"
       id="path11" /><path
       style="fill:none;stroke:#000000;stroke-width:0.728616;stroke-linecap:round;stroke-linejoin:round;stroke-dasharray:none;stroke-opacity:1"
       d="m 37.740393,14.880421 c 0,0 1.105322,1.587231 1.270772,3.264946 0.165451,1.67772 0.0407,9.619581 -0.185897,11.750043"
       id="path12" /><path
       style="fill:none;stroke:#000000;stroke-width:0.728616;stroke-linecap:round;stroke-linejoin:round;stroke-dasharray:none;stroke-opacity:1"
       d="m 40.59866,8.9979758 1.954813,-7.405e-4"
       id="path13" /><path
       style="fill:none;stroke:#000000;stroke-width:0.728616;stroke-linecap:round;stroke-linejoin:round;stroke-dasharray:none;stroke-opacity:1"
       d="M 40.618357,10.493394 42.573171,10.4926"
       id="path18" /><path
       style="fill:none;stroke:#000000;stroke-width:0.728616;stroke-linecap:round;stroke-linejoin:round;stroke-dasharray:none;stroke-opacity:1"
       d="m 40.580092,11.968897 1.954816,-7.41e-4"
       id="path19" /><path
       style="fill:none;stroke:#000000;stroke-width:0.728616;stroke-linecap:round;stroke-linejoin:round;stroke-dasharray:none;stroke-opacity:1"
       d="m 40.595713,13.491539 1.954814,-7.41e-4"
       id="path20" /><path
       style="fill:#000000;fill-opacity:1;stroke:#000000;stroke-width:0.728616;stroke-linecap:round;stroke-linejoin:round;stroke-dasharray:none;stroke-opacity:1"
       d="M 39.161624,7.5472197 24.984732,7.4166531 27.05325,14.760039 39.165538,14.852459 Z"
       id="path14" /><path
       style="fill:#000000;fill-opacity:1;stroke:#000000;stroke-width:0.728616;stroke-linecap:round;stroke-linejoin:round;stroke-dasharray:none;stroke-opacity:1"
       d="m 12.555032,7.5479019 5.819886,-0.1476073 c 0.01816,0.4990957 0.09251,1.0019411 0.154835,1.5039879 l 1.106842,6.0070345 -7.118988,-0.143408 c 0.192155,-0.142583 1.308726,-1.821268 1.181971,-3.940548 -0.08616,-1.4405212 -1.144546,-3.2794591 -1.144546,-3.2794591 z"
       id="path15" /><path
       style="fill:#000000;fill-opacity:1;stroke:#000000;stroke-width:0.728616;stroke-linecap:round;stroke-linejoin:round;stroke-dasharray:none;stroke-opacity:1"
       d="M 8.9147649,12.963576 5.0839261,11.070687 8.8601156,9.2953687 c 0,0 0.6262311,0.8883513 0.6340804,1.9434093 0.0044,0.589265 -0.2005334,1.107137 -0.5826996,1.715442 z"
       id="path16" /></g></svg>
