<svg xmlns="http://www.w3.org/2000/svg" xmlns:svg="http://www.w3.org/2000/svg" version="1.1" width="100" height="100" viewBox="-50 -50 100 100">
  <defs/>

  <path d="m19.54 -47.98c-0.07 0.69 -0.23 1.23 -0.49 1.86l0.18 -0.08c1.91 -0.9 3.96 -1.3 6.06 -1.32l0.31 0c0.49 0 0.72 0.02 1.13 0.29c-0.02 0.22 -0.02 0.22 -0.12 0.49c-0.26 0.19 -0.26 0.19 -0.57 0.35l-0.31 0.16l-0.24 0.11l0.4 0.15c2.7 1.06 4.83 2.68 6.91 4.69l0.23 0.21c2.48 2.38 2.48 2.38 2.64 3.51c-0.02 0.48 -0.09 0.73 -0.34 0.98c-0.83 0.11 -1.35 -0.39 -2.12 -0.71c-0.57 -0.21 -1.16 -0.31 -1.77 -0.4c0.16 0.7 0.27 1.43 0.12 2.11l-2.72 0l0.42 0.68c0.62 1.08 0.74 1.92 0.69 3.16c-0.54 0 -0.44 0.04 -0.86 -0.27c-0.35 -0.25 -0.81 -0.52 -1.24 -0.6c0.33 1.03 0.9 1.86 1.51 2.76c0.7 1.09 1.32 2.22 1.92 3.38c0.42 0.79 0.83 1.6 1.19 2.43c0.51 1.4 1.72 2.07 2.94 2.73c1.04 0.55 2.1 0.98 3.22 1.35l0.74 0.25c0.21 0.28 0.19 0.28 0 0.62c-0.72 0.74 -1.62 0.79 -2.6 0.86c1.76 1.32 3.51 2.14 5.58 2.73c0.39 0.17 0.17 0.43 0 0.62c-0.91 0.99 -2.3 1.08 -3.6 1.12c0.36 1.12 0.28 0.73 0.45 1.27c0.47 1.24 0.3 2.05 0.27 3.14c-0.02 0.21 -0.7 0.11 -1 -0.3c-0.35 -0.45 -0.71 -0.72 -1.19 -1.03c0.16 4.7 -1.19 7.08 -2.88 8.89c-0.28 0.38 -0.46 0.48 -0.89 0.3c-0.25 -0.72 -0.04 -1.84 -0.15 -2.25c-0.75 -0.26 -1.76 3.23 -7.83 6.87c-1.25 0.66 -1.97 0.93 -2.75 1.19c0.32 2.74 1.32 4.11 2.23 4.46c-0.13 0.37 -0.13 0.37 -0.39 0.51c-0.69 0.3 -1.42 0.47 -2.18 0.48c-0.22 0 -0.43 0 -0.66 -0.01c0.28 0.5 0.08 0.71 0.25 1.61c0.42 0.29 0.65 0.29 1.14 0.23c1.18 -0.34 2.25 -1.19 3.24 -1.88c1.94 -1.31 3.6 -2.13 6.01 -1.77c1.6 0.42 2.92 1.48 3.88 2.8c0.78 1.34 0.85 2.84 0.49 4.33c-0.7 2.19 -2.33 3.95 -4.23 5.12c-2.19 1.34 -4.01 2.02 -6.16 2.69c-1.49 0.48 -3.07 0.54 -4.62 0.58c-3.4 0.01 -5.96 -2.6 -6.45 -3.27c-0.34 0.41 -0.65 0.83 -0.96 1.26c-0.9 1.24 -1.97 2.28 -3.1 3.31c-0.39 0.4 -1.01 0.81 -0.96 1.24c0.18 1.2 1.4 2.33 2.17 3.24c0.91 1.12 2.34 2.85 4.41 4.47c0.37 0.3 0.73 0.61 1.09 0.93c0.47 0.4 0.72 0.47 1.33 0.42c0.22 -0.06 0.44 -0.11 0.68 -0.17c1.4 -0.31 2.84 -0.36 4.26 -0.35c0.29 0 0.57 0 0.87 0c2.48 0 4.98 0.37 6.87 2.15c1.31 1.43 1.9 3.01 1.87 4.94c-0.09 1.64 -1.68 2.95 -3.56 3.93c-1.88 0.98 -4.13 1.84 -8.16 2.27c-1.19 0.15 -1.93 0.15 -3.29 0.16c-1.63 0 -2.77 -0.04 -3.98 -0.2c-1.72 -0.21 -2.64 -0.72 -4.28 -2.56c-0.3 -0.34 -3.15 -3.7 -3.46 -4.01c-3.44 -3.57 -7.63 -7.99 -8.88 -9.54c-1.55 -1.75 -3.18 -3.44 -4.74 -5.17c-0.67 -0.73 -1.41 -1.29 -2.23 -1.86c0.86 2.45 2.32 3.94 4.46 5.33c0.88 0.58 0.88 0.58 1.12 1.12c-2.21 1.07 -4.43 2.13 -6.7 3.09c-1.82 0.74 -3.92 1.39 -6.56 2.48c0.55 0.54 0.94 1.08 1.43 1.66c0.73 0.88 1.01 2 0.99 3.09c-0.03 1.31 -0.58 2.33 -1.43 3.31c-1.57 1.38 -3.23 1.82 -5.56 1.76c-2.2 -0.2 -4.1 -1.36 -5.7 -2.83c-1.78 -1.63 -2.68 -3.05 -3.38 -4.23c-1.34 -2.34 -2.31 -5.41 -1.77 -8.1c0.4 -1.14 1.12 -2.33 2.4 -2.84c0.77 -0.27 1.56 -0.34 2.37 -0.42c4.35 -0.31 6.06 -0.79 9.17 -3c0.21 -0.3 0.55 -0.73 0.73 -1.04c-0.46 0.15 -0.83 0.4 -1.23 0.64c-2.44 1.48 -5.04 2.55 -7.94 2.34c-0.27 -0.08 -0.73 -0.2 -0.35 -0.49c0.35 -0.22 0.41 -0.28 1.34 -1c-5.25 0.7 -7.44 0.31 -8.71 -0.11c-0.98 -0.33 -2.11 -0.93 -3.06 -2.12l0 -0.5c0.63 -0.06 1.26 -0.02 1.85 -0.25c-2.95 -1.79 -5.82 -4.62 -7.06 -9.05c-0.42 -1.24 -0.41 -2.56 -0.43 -3.85c0 -1.22 0.26 -2.38 1.05 -3.33c0.48 -0.35 0.79 0.16 1.11 0.49c0.33 -3.11 1.44 -5.34 3.72 -7.31c0.81 -0.58 1.69 -1.14 2.73 -0.99c0.4 0.18 0.58 0.31 0.79 0.69c0.18 0.47 0.24 0.66 0.46 1.28c0.77 2.05 1.71 4.03 2.96 5.84c0.96 1.52 2.2 2.85 3.36 4.21c0.72 0.82 1.19 1.33 2.05 1.98c0.57 0.44 1.54 1.01 2.16 1.38c0.01 -0.35 0.14 -0.68 0.16 -1.03c0.02 -0.82 -0.11 -1.1 -0.54 -1.59c-0.19 -0.84 0.25 -1.4 0.72 -2.03c0.36 -0.43 0.81 -0.78 1.25 -1.13c3.49 -2.65 7.54 -4.6 11.42 -6.63c-1.14 -0.74 -2.24 -1.85 -3.05 -3.48l-0.17 0.01c0.03 0.94 0.11 1.81 0.42 2.72c0.1 0.34 0.11 0.65 0.07 1c-1.52 0.09 -2.72 -0.89 -3.8 -1.86c-0.63 -0.58 -1.23 -1.19 -1.77 -1.86c-0.79 -0.95 -1.58 -2.03 -2.3 -3.58c-0.16 -0.39 -0.16 -0.39 -0.43 -0.63l-0.27 0.63c-0.31 0.83 -0.3 1.72 -0.35 2.59c-0.2 0.11 -0.1 0.25 -0.5 0.12c-0.94 -0.51 -1.4 -1.51 -1.89 -2.4c-0.64 -1.4 -0.55 -3.29 -0.05 -4.71c0.2 -0.53 0.44 -1.04 0.7 -1.56c-1.31 0.44 -2.55 0.48 -3.1 0.42c-0.32 -0.06 -1 -0.19 -1.23 -0.42c-0.1 -0.41 0.4 -0.72 0.91 -1.02c1.65 -1 2.85 -2.26 3.8 -3.94l-3.35 -0.13c-0.62 -0.52 0.06 -0.94 1.2 -1.33c0.86 -0.38 1.61 -0.9 2.29 -1.52c1.75 -1.64 2.63 -3.83 2.83 -6.19c-0.79 0.42 -0.79 0.42 -1.54 0.91c-0.24 0.11 -0.5 0.26 -0.69 0.08c-0.42 -0.6 0.02 -2.23 0.62 -3.35c-0.19 0.06 -0.46 0.21 -0.77 0.43c-1.6 1.15 -6.51 0.9 -6.79 0.81c-0.19 -0.21 -0.26 -0.47 -0.1 -0.73c0.22 -0.24 1.86 -1.88 2.08 -2.37l-0.42 0.18c-0.31 0.11 -2.23 1.19 -4.66 0.69c-1 -0.65 0.92 -2.16 1.86 -3.48c1.66 -2.04 3.13 -4.47 5.35 -5.94c0.19 -0.09 0.36 -0.19 0.47 -0.37c-0.74 0.15 -1.47 0.26 -2.23 0.25c-0.16 -0.29 -0.02 -0.59 0.16 -0.92c1.65 -1.58 5.06 -2.72 7.33 -2.68c0.19 0 0.38 0 0.57 0.01c-0.53 -0.6 -1.17 -0.96 -1.86 -1.36c-0.01 -0.12 -0.07 -0.25 0.12 -0.37c0.36 -0.14 0.96 -0.23 1.33 -0.32c0.69 -0.24 2.31 -0.31 3.57 -0.34c3.24 -0.01 5.94 1.79 8.19 3.94c0.23 0.23 0.45 0.46 0.67 0.68l0 -2.1c0.91 0.15 1.17 0.43 1.74 1.11c0.57 0.81 1.36 1.97 1.36 2.98c1.99 -0.57 3.06 -0.88 4.45 -1.16c1.39 -0.29 3.31 -0.47 4.74 -0.44c0.91 0 2.41 0.11 3.33 0.11c0.19 -0.93 0.35 -1.25 0.73 -1.86c0.13 -0.19 0.41 -0.48 0.54 -0.67c0.64 -0.77 0.63 -1.36 1.21 -1.06c0.19 0.38 0.15 0.59 0.15 1c0 0.31 -0.03 0.79 -0.03 1.1l0.25 0c0.06 -0.62 0.4 -1.16 0.71 -1.68c0.67 -1.14 1.51 -2.09 2.39 -3.04l0.2 -0.22c1 -1.11 2.39 -2.16 3.89 -2.14z" fill="#2e2e2e"/>
  <path d="m13.24 -36.21c1.16 0.95 1.17 2.25 1.31 3.58c0.06 0.57 0.12 1.13 0.18 1.7c0.36 3.13 1.08 6.91 3.68 9.02c0.92 0.65 1.19 0.31 2.07 1.03c1.81 1.45 4.09 1.83 6.34 1.61c0.52 -0.1 0.9 -0.28 1.36 -0.54c0.87 -0.46 1.77 -0.31 2.7 -0.09c0.28 0.09 0.55 0.2 0.82 0.3l0.37 0.12c3.66 1.28 5.13 4.53 5.44 6.95c-0.69 -0.78 -1.55 -1.27 -2.48 -1.73c0.97 1.86 1.52 5.45 -0.12 8.92c-0.23 -0.34 -0.31 -0.55 -0.41 -0.94c-0.25 -0.87 -0.63 -1.68 -1.32 -2.28c-0.19 1.05 -0.96 3.21 -1.93 4.61c-1.1 1.5 -2.46 2.77 -4 3.78c-4.66 3.14 -9.23 3.76 -11.68 3.88c0.54 1.04 1.03 0.78 2.71 0.87c1.29 0.01 1.29 0.01 1.78 0.5c0.65 0.84 1.32 1.67 1.95 2.51c0.13 0.21 0.13 0.21 0.13 0.46c-1.19 0.06 -2.23 -0.22 -3.22 -0.87c0.29 1.25 0.7 1.68 0.77 3.18c-0.04 1.19 -0.15 4.53 -2.26 5.5c-0.05 -1.49 -0.19 -2.91 -0.79 -4.14c-0.17 -0.19 -0.37 0.09 -0.41 0.42c-0.62 3.35 -2.71 6.87 -5.5 8.86c-1.28 0.83 -2.42 1.39 -4.2 1.43c0.11 -0.58 0.48 -1.65 0.65 -2.18c0.59 -1.49 0.76 -1.89 0.71 -4.39c-0.06 -0.07 -0.16 -0.06 -0.27 0.02c-0.2 0.3 -0.33 0.57 -0.5 0.88c-0.23 0.38 -0.52 0.65 -0.83 0.96c-0.62 -1.9 -1.38 -3.87 -2.33 -6.17c-0.35 -0.86 -0.93 -1.62 -1.19 -2.2c0.01 1.32 -0.2 1.95 -0.37 2.73c-0.48 -0.16 -0.93 -1.72 -1.22 -2.13c-0.78 -1.09 -0.67 -0.86 -1.38 -2.52c-0.5 -1.26 -0.75 -2.61 -0.71 -3.97l0.77 0.49c2.14 1.05 3.9 1.55 6.29 1.75l0.52 -0.61c0.13 -0.16 1.34 -0.13 2.38 -0.6c0.19 -0.1 0.4 -0.03 0.7 -0.16c-2.22 -0.95 -4.38 -1.97 -6.92 -3.27c-0.38 -0.2 -0.75 -0.38 -1.14 -0.57c0.05 0.63 0.21 1.09 0.52 1.65c0.1 0.21 0.1 0.21 0.1 0.46c-2.53 -0.76 -5.06 -2.82 -6.69 -4.84l-0.3 -0.36c-1.72 -2.12 -2.7 -4.42 -2.43 -7.2c0.13 -0.43 0.26 -0.73 0.5 -1.11l-0.35 0.11c-0.3 0.1 -0.59 0.18 -0.9 0.26c0.16 -1.4 1.06 -2.7 2.14 -3.58c1.87 -1.38 4.21 -2.05 6.53 -1.75c0.61 0.13 1.18 0.35 1.76 0.57c1.6 0.61 3.63 0.48 5.18 -0.2c1.7 -0.73 3.5 -2.55 3.54 -3.53c-0.02 -0.39 0.31 -1.14 0.84 -1.49c0.78 -0.53 1.23 -1.26 1.45 -2.17c0.31 -2.24 -0.34 -4.77 -1.24 -6.32c-2.19 -3.78 -4.57 -5.74 -7.7 -6.78c-1.18 -0.37 -2.65 -0.65 -3.88 -0.83c-0.12 -0.09 -0.15 -0.19 0.06 -0.32c3.78 -0.88 9.18 -1.66 12.42 0.73z" fill="#fcfcfc"/>
  <path d="m4.94 -12.55c0.47 0.02 0.84 0.11 1.29 0.25c1.35 0.41 2.71 0.73 4.08 1.08c2.97 0.76 5.96 1.45 8.96 2.09c1.25 0.26 2.46 0.36 3.74 0.37c1.01 0.04 1.66 0.04 2.58 -0.53c0.43 -0.22 0.81 -0.22 1.14 0.11c-0.04 1.48 -2.24 1.51 -2.48 1.49l-0.09 0.25c-0.67 1.68 -2.35 2.97 -3.5 4.34c-1.43 1.68 -4.03 3.25 -6.7 3.38c-2.81 0.07 -4.92 -0.74 -7.01 -2.7c-1.71 -1.86 -3.15 -4.38 -3.21 -7.85c0.07 -1.81 0.1 -2.21 1.19 -2.28z" fill="#2f2f2f"/>
  <path d="m30.8 37.97c0.76 0.92 1.17 1.77 1.19 2.99c0.07 0.76 -0.23 1.39 -0.8 1.88c-0.32 0.19 -0.61 0.41 -0.98 0.41c-0.15 -0.52 -0.31 -1.04 -0.62 -1.48c-0.02 1.16 -0.15 1.81 -0.74 2.47c-1.25 0.97 -2.89 1.07 -4.39 1.38c-3.27 0.68 -5.76 0.64 -7.79 0.61c-2.4 -0.06 -2.4 -0.06 -3.2 -0.78c-0.46 -0.42 -0.92 -0.69 -1.13 -1.27c0.06 -1.96 0.88 -3.53 2.24 -4.89c0.4 -0.41 0.83 -0.74 2.01 -1.47c1.14 -0.76 2.43 -0.98 3.74 -1.22c3.34 -0.61 7.7 -0.97 10.47 1.36z" fill="#fdfcfc"/>
  <path d="m-7.21 -18.64c2.78 -0.07 4.39 1.18 6.46 2.07c0.68 0.28 0.92 0.33 1.64 0.67c-0.12 0.08 -0.46 0 -0.67 -0.01c-2.48 0.15 -4.82 0.57 -6.58 2.52c-0.67 0.88 -1.11 1.82 -1.49 2.85c0.64 -0.49 1.04 -0.63 1.36 -0.37l-0.47 0.96c-0.37 1.06 -0.15 2.58 0.35 3.87c0.8 1.9 1.97 3.46 3.43 4.92c0.37 0.37 0.69 0.76 1.03 1.15l-0.25 0.38c-1.58 0.23 -3.26 -0.88 -4.47 -1.78c-1.95 -1.25 -3.31 -3.01 -4.58 -4.92c-0.42 0.5 -0.63 1.13 -0.86 1.74c-0.28 -0.21 -0.36 -0.35 -0.46 -0.68c-0.33 -1.58 -0.31 -2.62 0.21 -3.91c-1.29 0.55 -2.11 1.44 -3.04 2.48c-0.16 0.15 -0.47 0.36 -0.68 0c-0.08 -1.41 -0.04 -2.55 0.62 -3.84c0.41 -0.82 0.99 -1.91 2.23 -2.73c-0.5 -0.32 -1.02 -0.3 -1.59 -0.32c-0.33 -0.01 -0.68 -0.04 -1.03 -0.05c0.87 -2.02 3.39 -3.29 5.32 -4.08c1.01 -0.38 2.44 -0.77 3.51 -0.92z" fill="#e69428"/>
  <path d="m-34.63 0.37c0.19 0.26 0.28 0.58 0.39 0.88l0.13 0.37c0.12 0.3 0.14 0.34 0.45 1.13c0.91 2.2 2.18 4.27 3.62 6.17c2.21 2.96 2.78 2.86 2.85 3.34c-1.81 -0.5 -3.16 -1.22 -4.83 -1.48c0.03 1.3 0.64 2.33 1.37 3.38c0.11 0.21 0.11 0.21 0.11 0.71c-2.07 0.11 -3.8 -0.5 -5.7 -1.24c0.2 2.32 0.86 4.35 2.59 5.99c0.6 0.48 1.24 0.9 1.88 1.32c-0.69 0.4 -1.45 0.35 -2.21 0.16c-2.78 -0.93 -4.75 -3.33 -6.06 -5.85c-0.4 -0.8 -0.71 -1.61 -0.92 -2.48c-0.33 -1.19 -0.36 -2.34 -0.36 -3.67c0.03 -0.28 0.12 -0.43 0.37 -0.8c0.44 0.57 1.37 1.26 2.48 1.73c-0.83 -2.41 -0.16 -0.54 -0.38 -1.3c-0.6 -1.76 -0.47 -3.32 0.26 -5.02c0.32 -0.63 0.74 -1.19 1.15 -1.76c1.9 -1.97 2.43 -1.91 2.81 -1.58z" fill="#fbfbfb"/>
  <path d="m5.94 -29.1c1.84 1.42 3.04 3.56 3.5 5.82c0.09 0.7 0.1 1.41 0.11 2.13c-0.01 1.42 -0.59 2.97 -1.56 4.03c-0.92 0.83 -2.11 1.17 -3.31 1.15c-1.72 -0.15 -3.19 -1.17 -4.35 -2.38c-1.02 -1.23 -1.66 -2.69 -2.11 -4.22c-0.27 -0.88 -0.42 -3.96 0.46 -5.3c0.67 -1.12 1.4 -1.93 2.64 -2.39c1.7 -0.41 3.25 0.16 4.62 1.15z" fill="#fbfbfb"/>
  <path d="m32.61 9.91c0.28 0.17 0.28 0.17 0.57 0.37l0.32 0.24c0.9 0.68 1.56 1.34 1.78 2.49c0.15 1.44 -0.39 2.59 -1.24 3.72c-1.69 2.02 -4.24 2.89 -6.55 4c-0.54 0.24 -1.44 0.4 -2.23 0.55c-0.96 0.18 -2.03 0.6 -2.89 0.02c-1.03 -0.72 -1.65 -1.75 -1.94 -2.96c-0.05 -0.41 -0.03 -0.82 -0.02 -1.24c1.06 0.48 1.76 0.51 3.07 0.51c0.86 0.05 0.7 -0.88 0.59 -1.49c-0.14 -0.81 -0.22 -1.65 0.11 -2.4c0.6 -0.64 1.19 -1.23 1.97 -1.63c0.48 -0.25 0.83 -0.54 1.21 -0.93c1.44 -1.32 3.34 -2.13 5.25 -1.25z" fill="#e59225"/>
  <path d="m-29.46 30.87l4.13 -0.01c-0.25 1.61 -0.35 1.82 -0.47 2.56c-0.1 1.33 0.31 2.37 1.16 3.42c0.77 0.85 2.32 1.45 3.5 1.44c1.51 -0.05 1.51 -1.1 2.78 -0.59c1.22 0.73 2.72 1.97 2.7 2.98c0.01 0.71 -0.04 1.68 -0.48 2.33c-0.29 0.39 -0.53 0.62 -1 0.62l-0.24 -0.86c-0.55 -0.2 -0.2 1.09 -1.22 1.87c-0.99 0.42 -2.28 0.15 -3.25 -0.22c-3.55 -1.58 -5.56 -4.02 -7.28 -7.38c-0.69 -1.38 -1.23 -3.36 -0.95 -4.91c0.13 -0.42 0.41 -1.2 0.64 -1.25z" fill="#fcfcfb"/>
  <path d="m23.17 -31.49c2.2 1 3.5 3.15 4.32 5.33c0.44 1.4 0.74 3.45 0.08 4.82c-0.41 0.66 -0.86 0.99 -1.58 1.25c-1.29 0.18 -2.37 -0.21 -3.42 -0.94c-1.98 -1.52 -3.31 -3.78 -3.77 -6.25c-0.14 -1.23 -0.2 -2.57 0.62 -3.59c1.1 -1.18 2.29 -1.23 3.75 -0.62z" fill="#fafafa"/>
  <path d="m-8.22 15.61c1.12 0.57 1.88 1.44 2.35 2.6c0.27 0.86 0.29 1.91 -0.12 2.72c-1.01 1.52 -2.85 2.29 -4.58 2.7c-1.78 0.17 -3.16 -0.25 -4.6 -1.32c-0.33 -0.29 -0.65 -0.58 -0.96 -0.87c-0.34 -0.32 -0.68 -0.37 -0.81 -0.83l-0.08 -0.54c-0.09 -0.81 -0.08 -1.02 0.29 -1.48c0.16 -0.12 0.31 -0.24 0.45 -0.38c0.43 -0.02 0.87 -0.03 1.3 -0.03c0.89 0 1.62 -0.65 1.75 -1.27c0.15 -1.25 1.32 -1.11 2.28 -1.12c0.42 -0.02 0.84 -0.03 1.28 -0.03c0.53 -0.04 0.9 -0.22 1.45 -0.15z" fill="#fcfcfc"/>
  <path d="m15.72 -6.35c1.04 0.77 2.14 1.58 2.57 2.84c0.1 0.26 -0.03 0.88 -0.43 1.09c-1.85 1.2 -3.76 1.55 -5.94 1.25c-2.15 -0.48 -3.98 -2.03 -5.18 -3.82c-0.56 -0.9 -1.01 -1.78 -1.21 -2.83c3.4 -1.21 7.26 -0.55 10.19 1.47z" fill="#ed7066"/>
  <path d="m32.61 9.91c1.22 0.72 2.33 1.66 2.67 3.1c0.15 1.44 -0.39 2.59 -1.24 3.72c-0.9 1.1 -2.2 1.96 -3.47 2.6l-0.18 -0.12c-0.03 -0.62 0.53 -1.5 0.18 -1.99c-0.41 -0.47 -1.01 -0.69 -1.57 -0.95c-0.87 -0.46 -0.7 -0.96 -0.71 -2.33c0.09 -1.02 -0.43 -1.2 -1.83 -1.97c1.19 -1.2 3.48 -3.42 6.15 -2.06z" fill="#fcfcfb"/>
  <path d="m24.68 -18.39c0.34 0.31 0.54 0.53 0.61 0.99c0 1.42 -0.39 2.21 -1.36 3.23c-0.84 0.8 -1.74 1.33 -2.93 1.31c-1.79 -0.2 -3.62 -1.19 -4.81 -2.54c-0.44 -0.62 -0.68 -1.19 -0.62 -1.96c0.19 -0.67 0.59 -0.97 1.16 -1.31c2.22 -1.16 5.84 -1.16 7.95 0.28z" fill="#2f2f2f"/>
  <path d="m15.17 34.59c1.02 0.38 1.81 1.09 2.6 1.85c0.3 0.24 0.54 0.37 0.92 0.49l-0.07 0.26c-0.8 0.51 -3.26 0.63 -5.2 3.65c-0.67 1.11 -0.94 2.12 -1.07 3.4c-1.47 -1.15 -2.46 -1.99 -2.75 -3.89c-0.01 -0.62 -0.29 -1.92 -0.1 -2.43c2.46 0.08 3.92 -0.33 3.97 -0.62c-0.09 -0.57 -0.51 -0.99 -0.86 -1.42c-0.28 -0.42 -1.2 -0.93 -0.88 -1.3c0.86 -0.43 2.54 -0.23 3.44 0.01z" fill="#e69327"/>
  <path d="m-22.73 29.49c-0.65 1.09 -1.35 2.66 -1.46 3.95c-0.02 0.6 0.27 0.67 0.74 1.11c0.3 0.22 0.92 0.26 1.32 0.31c1.19 0.16 2.38 0.34 3.58 0.51c0.32 0.09 0.46 0.2 0.67 0.46c-0.61 0.35 -1.19 0.75 -1.86 0.99c0.3 0.36 0.67 0.55 1.36 0.87c-1.38 0.7 -2.77 1.04 -4.31 0.65c-0.14 -0.06 -2.54 -1.07 -3.06 -3.31c-0.25 -1.36 -0.01 -2.87 0.42 -4.17l-4.13 0.01c0.5 -0.87 0.54 -0.88 0.75 -1.05c0.29 -0.15 1 -0.14 1.51 -0.16c0.94 -0.09 2.92 0.01 4.47 -0.17z" fill="#e59229"/>
  <path d="m-12.31 13.01c0.32 0.57 0.69 0.71 0.99 0.99c0.86 0.77 1.91 1.08 2.97 1.49l0 0.12c-1.01 0.31 -2.02 0.3 -3.07 0.3c-0.27 0.01 -0.54 0.01 -0.81 0.01c-0.42 0.08 -0.8 0.35 -0.83 0.56c-0.13 0.53 -0.15 1.02 -0.56 1.42c-1.17 0.71 -1.86 0.3 -3.03 0.7c-0.31 0.45 -0.34 1.09 -0.25 2.09c-0.5 -0.43 -0.83 -1 -1.17 -1.56c-0.6 -1.04 -1.19 -2.14 -1.56 -3.27c1.35 0.35 2.25 0.5 3.45 -0.24c0.53 -0.45 0.97 -0.93 1.39 -1.5c0.72 -0.94 1.32 -1.21 2.48 -1.11z" fill="#e59125"/>
  <path d="m-12.07 -37.81l0.25 0c0.56 1.05 1.3 0.54 2.73 3.1l-0.15 0.25c-0.89 0.03 -1.59 -0.07 -2.45 -0.25c0.21 0.59 0.39 0.9 1.38 1.88c0.2 0.2 0.23 0.22 0.23 0.47c-2.9 1.37 -2.9 1.37 -3.35 1.37c0 0.57 0.9 0.78 1.36 0.99c-0.18 0.56 -0.84 0.84 -1.32 1.09c-1.9 0.97 -1.81 0.87 -2.77 0.77c-0.2 -0.35 -0.2 -0.35 -0.37 -0.75c0.15 -0.48 0.51 -0.75 0.87 -1.09c2.14 -2.08 3.22 -4.91 3.59 -7.83z" fill="#e48e23"/>
  <path d="m22.85 -39.47c0.14 0 0.29 0 0.42 0c1.37 0.01 2.82 0.25 3.96 1.05c0.16 0.27 0.16 0.27 0.24 0.5c-0.18 0.18 -0.36 0.16 -0.62 0.18c-0.1 0.02 -0.19 0.03 -0.31 0.04c-0.11 0.01 -0.21 0.03 -0.32 0.04c-0.11 0.01 -0.21 0.02 -0.32 0.03c-0.26 0.03 -0.52 0.05 -0.78 0.09c0.44 0.46 0.92 0.88 1.41 1.29c0.2 0.17 0.2 0.17 0.2 0.55c-0.72 0.01 -1.4 -0.03 -2.11 -0.13c0.05 0.08 0.11 0.15 0.16 0.23c0.08 0.09 0.14 0.19 0.21 0.29c0.1 0.15 0.1 0.15 0.22 0.3c0.16 0.3 0.16 0.3 0.16 0.79c-0.39 -0.07 -0.66 -0.21 -0.98 -0.43c-0.09 -0.06 -0.19 -0.12 -0.28 -0.19c-0.14 -0.1 -0.14 -0.1 -0.28 -0.19c-0.91 -0.62 -1.82 -1.17 -2.8 -1.67c0.12 -0.37 0.12 -0.37 0.42 -0.54c0.12 -0.05 0.25 -0.11 0.37 -0.16c0.13 -0.05 0.25 -0.11 0.37 -0.16c0.33 -0.13 0.33 -0.13 0.57 -0.13c0 -0.12 0 -0.25 0 -0.37c-0.08 -0.01 -0.18 -0.02 -0.28 -0.05c-0.65 -0.11 -1.29 -0.22 -1.94 -0.33c-0.13 -0.03 -0.26 -0.05 -0.39 -0.08c-0.32 -0.05 -0.66 -0.1 -0.98 -0.16c0.12 -0.25 0.12 -0.25 0.42 -0.38c1.09 -0.34 2.12 -0.41 3.26 -0.42z" fill="#e28e22"/>
  <path d="m6.77 -23.93c1.89 0.75 2.32 2.86 1.65 4.29c-0.98 1.62 -2.36 1.04 -2.81 0.83c-0.67 -0.59 -1.12 -1.21 -1.23 -2.12c-0.11 -1.3 0.13 -2.12 0.53 -2.55c0.43 -0.56 1.22 -0.56 1.86 -0.45z" fill="#30302f"/>
  <path d="m25.24 -26.41c0.8 0.26 1.27 0.82 1.65 1.54c0.35 0.78 0.52 1.51 0.25 2.34c-0.61 1.56 -2.27 1.17 -2.8 0.86c-0.77 -0.54 -1.03 -1.22 -1.2 -2.13c-0.08 -0.8 -0.03 -1.42 0.37 -2.11c0.51 -0.58 1.01 -0.6 1.73 -0.5z" fill="#2f302f"/>
  <path d="m3.43 21.93c0.94 -0.07 3.93 2.46 4.83 4.34c-1.24 0.5 -3.25 -1.99 -4.13 -2.94c-0.7 -0.78 -0.7 -0.78 -0.7 -1.4z" fill="#f7f7f7"/>
  <path d="m-5.5 10.16c0.33 0.12 0.47 0.2 0.66 0.51c0.02 0.07 0.06 0.14 0.1 0.23c-0.98 0.98 -2.02 1.67 -3.22 2.36c-0.12 0.07 -0.23 0.15 -0.35 0.22c-0.29 0.15 -0.29 0.15 -0.66 0.07c-0.38 -0.18 -0.67 -0.4 -0.99 -0.67c0.07 -0.03 0.14 -0.07 0.21 -0.11c1.45 -0.81 2.88 -1.66 4.25 -2.61z" fill="#f6f6f6"/>
  <path d="m30.2 -22.57c0.14 0.05 2.73 1.81 2.73 3.48c-1.01 -0.38 -1.91 -0.97 -3.82 -1.02l0.2 -0.31c0.38 -0.69 0.82 -1.34 0.89 -2.15z" fill="#e28d24"/>
  <path d="m22.19 -18.47c0.44 0.22 0.65 0.32 0.82 0.74c-0.48 -0.01 -1.54 -0.01 -1.97 -0.01c-0.41 0.01 -1.05 -0.08 -1.38 -0.21c-0.04 -0.05 -0.01 -0.49 0.24 -0.59c0.48 -0.18 1.74 -0.18 2.28 0.05z" fill="#f3f3f3"/>
</svg>