<?xml version="1.0" encoding="UTF-8" standalone="no"?>
<svg
   version="1.1"
   width="1024"
   height="1024"
   id="svg31"
   xmlns="http://www.w3.org/2000/svg"
   xmlns:svg="http://www.w3.org/2000/svg">
  <defs
     id="defs31" />
  <path
     d="m 0,0 c 337.92,0 675.84,0 1024,0 0,337.92 0,675.84 0,1024 -337.92,0 -675.84,0 -1024,0 C 0,686.08 0,348.16 0,0 Z"
     fill="#fdfdfd"
     id="path1" />
  <path
     d="m 633,108 c -0.56821,5.45479 -1.94638,9.91059 -4,15 l 1.51172,-0.73437 c 15.44172,-7.20799 31.94435,-10.49363 48.92578,-10.57813 l 2.45752,-0.0166 c 3.87122,0.0479 5.81558,0.13617 9.10498,2.3291 -0.21484,1.82813 -0.21484,1.82813 -1,4 -2.06641,1.48438 -2.06641,1.48438 -4.5625,2.75 l -2.50391,1.29688 L 681,123 l 3.19141,1.21484 C 706.02581,132.73136 723.21871,145.84856 740,162 l 1.79932,1.7168 c 19.99351,19.1523 19.99351,19.1523 21.32568,28.3457 -0.125,3.9375 -0.70027,5.85508 -2.70027,7.85508 -6.71354,0.88669 -10.91168,-3.12737 -17.08098,-5.67149 C 738.65233,192.49777 733.94737,191.66428 729,191 c 1.30881,5.55063 2.16507,11.52915 1,17 h -22 l 3.375,5.5 c 5.02085,8.67238 5.95479,15.53313 5.625,25.5 -4.36667,0 -3.59191,0.28494 -6.96594,-2.17047 C 707.19554,234.77354 703.47141,232.62328 700,232 c 2.67008,8.32436 7.34419,14.99941 12.15234,22.24219 5.72707,8.79326 10.66748,17.93921 15.47266,27.25781 3.40332,6.44409 6.74684,12.91056 9.62109,19.60937 4.0582,11.2779 13.85661,16.69618 23.72266,22.03125 8.41857,4.45954 16.97082,7.9004 26.03125,10.85938 l 6,2 c 1.71398,2.25 1.46258,2.25 0,5 -5.83675,6.00842 -13.08189,6.40536 -21,7 14.20081,10.63711 28.2535,17.15503 45,22 3.21307,1.38497 1.43153,3.48502 0,5 -7.26594,7.99254 -18.45715,8.69617 -29,9 2.85729,9.09895 2.21118,5.8818 3.55184,10.30787 3.79573,9.99823 2.44727,16.47447 2.16052,25.34983 -0.16051,1.74817 -5.65762,0.85492 -8.14986,-2.4077 -2.77377,-3.60924 -5.69889,-5.83728 -9.5625,-8.25 1.30525,37.85336 -9.5578,57.13162 -23.24998,71.6875 -2.28512,3.05825 -3.65084,3.94466 -7.17473,2.44959 -2.03026,-5.76056 -0.25924,-14.80325 -1.20241,-18.13709 -6.09358,-2.10304 -14.21061,25.96853 -63.18538,55.375 -10.066,5.34242 -15.91127,7.51339 -22.1875,9.625 2.59511,22.09255 10.72051,33.20977 18,36 -1,3 -1,3 -3.14453,4.13281 -5.62693,2.4313 -11.46003,3.81804 -17.60547,3.92969 -1.75015,-0.01 -3.50006,-0.0353 -5.25,-0.0625 2.24497,3.99153 0.6315,5.73125 2,13 3.40927,2.27285 5.23187,2.34716 9.23047,1.78516 9.47694,-2.6867 18.05868,-9.58437 26.14941,-15.05664 15.68933,-10.55746 29.13245,-17.195 48.51856,-14.29493 12.92056,3.36604 23.63726,11.90462 31.27734,22.61719 6.30451,10.75178 6.91604,22.89094 3.96484,34.91797 C 766.52452,634.3556 753.4292,648.59142 738,658 c -17.57594,10.77675 -32.33634,16.34248 -49.73267,21.74268 -12.04749,3.90199 -24.66141,4.43554 -37.20092,4.70652 C 623.63293,684.53699 603.03469,663.40005 599,658 c -2.69559,3.31445 -5.2273,6.69578 -7.6875,10.1875 -7.29297,10.01782 -15.8624,18.36086 -24.95703,26.71094 -3.23677,3.16026 -8.248,6.52951 -7.82031,9.99609 1.45735,9.73608 11.28611,18.79599 17.46484,26.10547 7.364,9.05254 18.94837,23.01588 35.59375,36.10156 3.02109,2.38353 5.88512,4.92082 8.75,7.48828 3.76806,3.20819 5.78161,3.77806 10.65625,3.41016 1.81819,-0.47138 3.636,-0.94429 5.45142,-1.42627 11.32106,-2.54857 22.87082,-2.89808 34.42236,-2.83447 2.32293,0.0108 4.6451,-10e-6 6.96802,-0.0127 19.99239,-0.0184 40.22785,3.00888 55.38867,17.33985 10.63541,11.62148 15.42135,24.31542 15.11719,39.90234 -0.7388,13.23039 -13.48473,23.78576 -28.66016,31.71875 C 704.58641,870.63369 686.5053,877.49547 654,881 c -9.55479,1.19868 -15.60891,1.23864 -26.625,1.25 -13.0508,0.0225 -22.33607,-0.3383 -32.125,-1.5625 -13.86411,-1.71745 -21.28582,-5.82312 -34.54688,-20.69531 -2.39353,-2.67783 -25.36576,-29.7662 -27.9277,-32.28456 C 505.067,798.89645 471.29485,763.16631 461.20703,750.67578 448.65518,736.6202 435.63499,722.99852 423,709 c -5.39918,-5.89401 -11.44332,-10.43523 -18,-15 6.91354,19.79229 18.714,31.79867 36,43 7.0928,4.68846 7.0928,4.68846 9,9 -17.83149,8.74183 -35.72945,17.20492 -54,25 -14.69613,5.87718 -31.69193,11.21244 -53,20 4.50728,4.26487 7.59154,8.71521 11.64851,13.40068 5.87071,7.06872 8.06031,16.06756 8.02999,24.91206 C 362.32377,839.85853 357.90387,848.07579 351,856 c -12.56888,11.08455 -25.9823,14.73395 -44.77637,14.16602 -17.7844,-1.55143 -33.09152,-11.01336 -45.99951,-22.78565 -14.37509,-13.23053 -21.64133,-24.61094 -27.29639,-34.19824 -10.78937,-18.75167 -18.63544,-43.5732 -14.31054,-65.27979 C 221.9094,738.71037 227.73028,729.10048 238,725 c 6.22597,-2.22182 12.57821,-2.75407 19.125,-3.4375 35.11398,-2.47755 48.94449,-6.40975 74.01681,-24.20822 1.68446,-2.37904 4.35811,-5.85586 5.85819,-8.35428 -3.65697,1.21899 -6.6792,3.17649 -9.9375,5.1875 C 307.37095,706.12694 286.38294,714.70058 263,713 c -2.24189,-0.59921 -5.92228,-1.59603 -2.81356,-3.91525 2.8261,-1.75095 3.30107,-2.33224 10.81356,-8.08475 -42.41132,5.70922 -59.96175,2.50342 -70.27119,-0.91525 C 192.78235,697.5152 183.74633,692.58016 176,683 v -4 c 5.0533,-0.46881 10.19721,-0.21193 15,-2 -23.83147,-14.49822 -47.03377,-37.31697 -57,-73 -3.4337,-9.99318 -3.32562,-20.70401 -3.5051,-31.14355 0.0262,-9.76451 2.07994,-19.22654 8.50513,-26.85645 3.85496,-2.82373 6.43211,1.31882 9,4 2.64023,-25.11647 11.60606,-43.10469 29.99997,-59 6.50185,-4.73018 13.64307,-9.18764 22,-8 3.16555,1.48462 4.71413,2.47473 6.40283,5.57764 1.36666,3.83667 1.9285,5.29119 3.72217,10.29736 6.1829,16.62385 13.77683,32.48878 23.875,47.125 7.69726,12.34833 17.6777,22.97317 27.13672,33.95312 5.77079,6.5509 9.57592,10.67698 16.47593,15.9722 4.64154,3.52436 12.39074,8.07587 17.38735,11.07468 0.0811,-2.75059 1.22528,-5.49879 1.27225,-8.25 0.21385,-6.61057 -0.85489,-8.92753 -4.27222,-12.75 -1.58974,-6.8367 1.99749,-11.3197 5.7656,-16.36328 2.90025,-3.49671 6.49658,-6.28469 10.06225,-9.05884 C 336.02111,539.05781 368.69105,523.37118 400,507 390.83945,501.02423 381.90455,492.13206 375.42473,478.89066 L 374,479 c 0.31952,7.64643 0.89793,14.60326 3.36719,21.86719 0.81753,2.7554 0.858,5.28038 0.63281,8.13281 -12.34252,0.67011 -21.96635,-7.18787 -30.73755,-15.03467 C 342.15211,489.26261 337.37423,484.40302 333,479 326.70622,471.27782 320.2882,462.61493 314.52344,450.13281 313.20439,446.98661 313.20439,446.98661 311,445 l -2.24609,5.07812 C 306.34039,456.75347 306.4117,463.9868 306,471 c -1.61076,0.89571 -0.81153,2.01463 -4,1 -7.58988,-4.10594 -11.34086,-12.15879 -15.32812,-19.41797 -5.10909,-11.31555 -4.36142,-26.45184 -0.35938,-38.01953 1.64114,-4.33202 3.56932,-8.44417 5.6875,-12.5625 -10.64051,3.64182 -20.60914,3.88988 -25.03241,3.38138 C 264.42161,404.92837 258.93316,403.94747 257,402 c -0.83721,-3.31131 3.27649,-5.80862 7.4375,-8.1875 C 277.69887,385.68489 287.4497,375.59054 295,362 l -27,-1 c -5.00848,-4.19257 0.45283,-7.6373 9.6875,-10.8125 6.88115,-2.98161 12.97397,-7.2121 18.53906,-12.17188 C 310.32148,324.72209 317.40971,307.08342 319,288 c -6.35015,3.42294 -6.35015,3.42294 -12.375,7.375 -2.02211,0.94388 -4.09639,2.14859 -5.625,0.625 -3.43685,-4.81304 0.24644,-17.98539 5,-27 -1.50656,0.46333 -3.74195,1.73228 -6.19596,3.47296 C 286.93999,281.70931 247.26571,279.66843 245,279 c -1.52317,-1.69604 -2.09844,-3.80537 -0.8416,-5.92793 C 246.02419,271.19723 259.23276,257.8505 261,254 l -3.42969,1.36328 C 255.11134,256.28255 239.59566,264.95465 220,261 c -8.11171,-5.1857 7.43268,-17.38454 14.96094,-28.09375 13.37718,-16.40384 25.30679,-36.00204 43.21736,-47.94746 1.45931,-0.70815 2.86608,-1.4951 3.8217,-2.95879 -5.95252,1.23268 -11.91076,2.11406 -18,2 -1.30782,-2.287 -0.15651,-4.70933 1.3125,-7.4375 13.31715,-12.69775 40.79755,-21.87182 59.0625,-21.625 1.54185,0.009 3.08341,0.0351 4.625,0.0625 -4.29976,-4.87306 -9.37224,-7.82004 -15,-11 -0.13748,-1 -0.57522,-2 1,-3 2.90045,-1.12173 7.65261,-1.83983 10.6516,-2.63672 5.57345,-1.86163 18.6096,-2.47493 28.84645,-2.67578 26.10285,-0.12835 47.90277,14.39564 66.09179,31.78906 1.82718,1.81754 3.62317,3.66637 5.41016,5.52344 v -17 c 7.33565,1.22261 9.43776,3.45948 14,9 4.59469,6.52079 11,15.85653 11,24 16.02675,-4.58826 24.72652,-7.1275 35.86167,-9.33749 11.18554,-2.36777 26.69236,-3.75412 38.20507,-3.60107 7.39591,0.0281 19.53752,0.87987 26.93326,0.93856 1.50521,-7.52434 2.82614,-10.12591 5.9426,-15.00953 1.00561,-1.46604 3.33011,-3.90557 4.30124,-5.39447 5.1744,-6.18273 5.09061,-11.02312 9.75616,-8.596 1.53267,3.06533 1.23836,4.77602 1.19809,8.13347 -0.0129,2.4584 -0.1716,6.40824 -0.19809,8.86653 h 2 c 0.47968,-5.03237 3.23314,-9.3547 5.71509,-13.62598 C 586.0684,142.32889 592.87656,134.69022 600,127 l 1.56641,-1.80078 C 609.67613,116.32722 620.90384,107.8049 633,108 Z"
     fill="#2e2e2e"
     id="path2" />
  <path
     d="m 582.18366,202.93366 c 9.2658,7.71822 9.43248,18.24409 10.52258,28.94405 0.47179,4.57714 1.0041,9.1477 1.52752,13.71913 2.94174,25.31286 8.73594,55.82512 29.70374,72.84066 7.35167,5.16487 9.63426,2.51114 16.6875,8.3125 14.59455,11.6582 32.9617,14.83537 51.10937,12.96875 4.18612,-0.77191 7.28254,-2.27494 10.95313,-4.40625 6.99435,-3.69328 14.27459,-2.50739 21.75,-0.73438 2.23716,0.70734 4.38364,1.5518 6.5625,2.42188 l 3.01562,0.99218 C 763.61753,348.16346 775.51873,374.42086 778,394 c -5.55188,-6.32957 -12.54055,-10.32664 -20,-14 7.79124,14.97851 12.17171,44.04264 -1,72 -1.85868,-2.78802 -2.49457,-4.46365 -3.3125,-7.625 C 751.6592,437.36815 748.64749,430.81083 743,426 c -1.52174,8.52638 -7.67138,25.90659 -15.54688,37.22265 -8.86479,12.09035 -19.86924,22.27132 -32.31753,30.45531 C 657.60196,519.04307 620.72056,523.98922 601,525 c 4.3358,8.43273 8.31902,6.34493 21.80932,7.0332 10.40585,0.14758 10.40585,0.14758 14.37818,3.9668 5.23435,6.78624 10.56142,13.50908 15.74609,20.33935 C 654,558 654,558 654,560 c -9.56954,0.54167 -17.95576,-1.81593 -26,-7 2.32573,10.10165 5.60147,13.45895 6.1875,25.61718 C 633.89029,588.19049 632.95302,615.18432 616,623 c -0.35075,-12.01135 -1.55257,-23.48477 -6.44068,-33.42373 -1.36023,-1.5297 -3.02982,0.70119 -3.30932,3.42373 -5.02879,26.98655 -21.94709,55.39978 -44.35694,71.51513 C 551.60597,671.16279 542.37013,675.6718 528,676 c 0.88402,-4.65956 3.9004,-13.28564 5.28763,-17.60219 C 537.96044,646.39106 539.37374,643.22343 539,623 c -0.53899,-0.60659 -1.27374,-0.51922 -2.24793,0.23149 -1.56825,2.36848 -2.64804,4.60707 -4.0216,7.09275 -1.9271,2.97981 -4.15405,5.24808 -6.73047,7.67578 -5.04876,-15.33069 -11.06502,-31.19209 -18.7539,-49.81416 -2.84459,-6.8982 -7.54632,-13.01417 -9.58841,-17.69299 0.0955,10.61974 -1.64487,15.73205 -3,22 -3.92983,-1.30995 -7.45918,-13.90446 -9.76393,-17.15752 -6.25672,-8.80792 -5.38796,-6.89074 -11.17111,-20.29627 -4.0388,-10.15036 -5.96509,-21.14165 -5.72265,-32.03906 l 6.20804,3.86715 c 17.32135,8.50473 31.48367,12.47785 50.79196,14.13285 l 4.23212,-4.91842 c 0.99302,-1.33724 10.75341,-1.01501 19.15962,-4.82424 1.49797,-0.76925 3.22503,-0.26509 5.60826,-1.25734 -17.89503,-7.6972 -35.28282,-15.9453 -55.80982,-26.38111 -3.05753,-1.55158 -6.12191,-3.08867 -9.19018,-4.61889 0.42897,5.14772 1.66356,8.77849 4.16015,13.30078 C 494,514.00002 494,514.00002 494,516.00002 c -20.39641,-6.08755 -40.75423,-22.71875 -54,-39 l -2.375,-2.86719 C 423.70702,456.95751 415.80271,438.40609 418,416.00002 c 0.97971,-3.47821 2.14763,-5.87414 4,-9 l -2.75,0.9375 c -2.41564,0.78972 -4.77781,1.49199 -7.25,2.0625 1.32173,-11.28557 8.60757,-21.76983 17.27734,-28.86328 15.07885,-11.12453 34.04115,-16.45327 52.72266,-14.13672 4.8607,1.14018 9.50778,2.8271 14.17187,4.58984 12.90706,4.85097 29.33313,3.90796 41.82813,-1.58984 13.70706,-5.88902 28.248,-20.60573 28.49148,-28.46168 -0.0941,-3.06989 2.51283,-9.16862 6.82102,-12.03832 6.32939,-4.265 9.85292,-10.17932 11.6875,-17.5 2.54615,-18.09862 -2.71179,-38.5271 -10,-51 -17.73611,-30.51327 -36.87242,-46.33128 -62.1017,-54.72884 -9.51406,-3.00049 -21.40162,-5.23782 -31.28182,-6.69591 C 480.459,198.87751 480.27207,198.05843 482,197 c 30.51635,-7.07989 73.97295,-13.40812 100.18366,5.93366 z"
     fill="#fcfcfc"
     id="path3" />
  <path
     d="m 515.21375,393.76366 c 3.75148,0.23417 6.78549,0.90631 10.36633,2.01784 10.86724,3.25247 21.89862,5.91177 32.90235,8.65429 23.96426,6.18505 48.073,11.74794 72.26953,16.94312 10.09984,2.11408 19.86814,2.86542 30.18554,2.99609 8.05079,0.26976 13.37192,0.28269 20.84595,-4.29443 3.54078,-1.82639 6.52502,-1.7721 9.21655,0.91943 -0.31417,11.93881 -18.08477,12.18535 -20,12 l -0.72656,2.03125 c -5.44405,13.60086 -19.03126,23.96974 -28.25483,34.96425 -11.45968,13.57257 -32.51528,26.31966 -53.9522,27.27794 -22.69954,0.59297 -39.72601,-6.01613 -56.6123,-21.82373 -13.77071,-14.98766 -25.43541,-35.34615 -25.8545,-63.26807 0.63083,-14.61803 0.77624,-17.76803 9.61414,-18.41798 z"
     fill="#2f2f2f"
     id="path4" />
  <path
     d="m 723.8125,801.375 c 6.18903,7.42684 9.46259,14.29428 9.5625,24.125 0.64395,6.13913 -1.77294,11.1969 -6.44531,15.17969 -2.56785,1.52316 -4.86405,3.29845 -7.92969,3.32031 -1.24772,-4.21104 -2.45209,-8.36123 -5,-12 -0.17171,9.36582 -1.16989,14.59704 -6,20 -10.10599,7.81742 -23.30435,8.55673 -35.39606,11.08719 -26.41548,5.49578 -46.45672,5.15239 -62.89984,4.85275 -19.30452,-0.463 -19.30452,-0.463 -25.8291,-6.31494 -3.70513,-3.44689 -7.43993,-5.45058 -9.06197,-10.1736 C 575.42723,835.73821 582.03196,822.98695 593,812 c 3.1975,-3.25899 6.65371,-5.86363 16.18856,-11.75 9.22638,-6.15657 19.56329,-7.88571 30.24894,-9.88672 26.92605,-4.88515 62.11719,-7.78376 84.375,11.01172 z"
     fill="#fdfcfc"
     id="path5" />
  <path
     d="m 417.19922,344.71094 c 22.44559,-0.55278 35.39651,9.54987 52.11328,16.66406 5.49878,2.18376 7.43408,2.64953 13.17903,5.43856 -0.92602,0.60887 -3.7498,-0.002 -5.39872,-0.11609 C 457.1151,367.89335 438.22915,371.29053 424,387 c -5.35587,7.06663 -8.87273,14.74229 -12,23 5.18988,-3.91505 8.3808,-5.08147 11,-3 l -3.76271,7.84958 C 416.20621,423.30906 418.01255,435.55795 422,446 c 6.50937,15.34777 15.91479,27.91479 27.6875,39.6875 2.95433,2.95433 5.62922,6.11286 8.3125,9.3125 l -2,3 c -12.75043,1.94028 -26.29064,-7.14896 -36.0625,-14.3125 C 404.24151,473.6308 393.17407,459.36706 383,444 c -3.4111,4.03718 -5.10328,9.13917 -7,14 -2.17734,-1.704 -2.94703,-2.80404 -3.67578,-5.5 C 369.65457,439.77373 369.8113,431.3506 374,421 c -10.43478,4.38483 -16.95072,11.61035 -24.50179,19.98258 -1.34766,1.16797 -3.84051,2.89379 -5.49821,0.0174 -0.57685,-11.42156 -0.32708,-20.57452 5,-31 3.348,-6.62287 8.0473,-15.36486 18,-22 -3.95495,-2.61537 -8.16827,-2.44264 -12.75,-2.625 -2.74935,-0.13913 -5.49954,-0.26013 -8.25,-0.375 6.96431,-16.27489 27.27915,-26.46274 42.89393,-32.93379 8.13703,-3.10019 19.68086,-6.22169 28.30529,-7.35527 z"
     fill="#e69428"
     id="path6" />
  <path
     d="m 196,498 c 1.52248,2.06486 2.21493,4.70043 3.14429,7.09692 l 1.10571,2.96558 c 0.93677,2.3937 1.107,2.82818 3.59619,9.11133 C 211.11624,534.98128 221.42321,551.69655 233,567 c 17.8115,23.85507 22.39199,23.11255 23,27 -14.58604,-4.14305 -25.51397,-9.90587 -39,-12 0.34859,10.45778 5.22431,18.83109 11.11719,27.28125 C 229,611 229,611 229,615 c -16.67436,0.85146 -30.68295,-3.96174 -46,-10 1.62377,18.66123 6.92954,35.13189 20.89453,48.30078 4.80649,3.87908 9.96158,7.28801 15.10547,10.69922 -5.54121,3.21416 -11.67486,2.78101 -17.77734,1.34766 -22.44638,-7.5036 -38.3156,-26.93329 -48.91016,-47.22266 -3.18889,-6.52793 -5.65352,-12.95571 -7.44809,-19.98941 -2.65918,-9.62598 -2.92013,-18.85722 -2.89023,-29.58416 C 142.23297,566.15055 143,565 145,562 c 3.54334,4.56608 10.99348,10.1866 20,14 -6.71717,-19.48226 -1.29246,-4.35963 -3.13477,-10.48293 C 157.05413,551.29295 158.05426,538.66541 164,525 c 2.58145,-5.05886 5.98901,-9.60647 9.3125,-14.1875 C 188.55885,494.85701 192.93477,495.41475 196,498 Z"
     fill="#fbfbfb"
     id="path7" />
  <path
     d="m 523.30859,260.3125 c 14.80242,11.37811 24.46186,28.7262 28.22266,46.92578 0.74172,5.69171 0.79447,11.43473 0.88623,17.16431 -0.0846,11.47146 -4.84619,23.99465 -12.60498,32.53491 -7.36727,6.72592 -16.99261,9.45673 -26.7461,9.33984 C 499.22067,365.02506 487.38593,356.7658 478,347 c -8.24687,-9.94523 -13.41087,-21.67961 -17,-34 -2.1937,-7.1046 -3.41516,-31.97155 3.6875,-42.75 5.3641,-9.04122 11.27751,-15.58306 21.3125,-19.25 13.6566,-3.30878 26.17657,1.27362 37.30859,9.3125 z"
     fill="#fbfbfb"
     id="path8" />
  <path
     d="m 738.4375,575 c 2.28906,1.38281 2.28906,1.38281 4.5625,3 l 2.64844,1.86719 C 752.94535,585.36662 758.23841,590.71161 760,600 c 1.21112,11.57051 -3.19406,20.87041 -10,30 -13.73373,16.29913 -34.18135,23.29109 -52.86328,32.25781 -4.33098,1.92621 -11.58047,3.18871 -18.01066,4.44982 -7.74983,1.5171 -16.25586,4.87796 -23.25106,0.22987 -8.30608,-5.79797 -13.34997,-14.08998 -15.57031,-23.90625 C 639.79894,639.65962 639.87844,636.40373 640,633 c 8.58249,3.87645 14.23991,4.11094 24.84766,4.1328 6.93566,0.35306 5.59797,-7.10401 4.66796,-12 -1.06454,-6.4679 -1.7236,-13.3492 0.92188,-19.4453 4.85445,-5.09125 9.61496,-9.85015 15.9375,-13.0625 3.90066,-1.99412 6.67387,-4.44868 9.8125,-7.5 11.58085,-10.72955 26.88814,-17.16686 42.25,-10.125 z"
     fill="#e59225"
     id="path9" />
  <path
     d="M 237.74576,744.0678 271,744 c -2,13 -2.81356,14.69492 -3.81356,20.69492 -0.75657,10.65016 2.46732,19.14469 9.36984,27.57733 6.2038,6.75719 18.72636,11.74557 28.16477,11.55526 12.1999,-0.42402 12.20379,-8.89043 22.38064,-4.77666 9.86995,5.93991 22.04515,15.85588 21.76272,24.10169 0.13692,5.73772 -0.30342,13.46002 -3.86441,18.84746 -2.34054,3.10611 -4.17332,5 -8,5 l -2,-7 c -4.35222,-1.59692 -1.62737,8.78448 -9.82031,15.08203 -8.01325,3.37476 -18.43998,1.23502 -26.22657,-1.77344 -28.68189,-12.70957 -44.93793,-32.39526 -58.76027,-59.52351 -5.52141,-11.08188 -9.86013,-27.11851 -7.58268,-39.61559 0.96443,-3.39729 3.25756,-9.72558 5.13559,-10.10169 z"
     fill="#fcfcfb"
     id="path10" />
  <path
     d="m 662.33594,240.96484 c 17.65133,8.0653 28.16495,25.44061 34.79297,43.03125 3.57227,11.33807 5.97346,27.83102 0.68359,38.94141 -3.25564,5.27322 -6.99905,8.03376 -12.8125,10.0625 -10.3933,1.39225 -19.05527,-1.73547 -27.5625,-7.5625 C 641.48237,313.09614 630.70934,294.87789 627,275 c -1.05331,-10.01516 -1.5933,-20.77485 5,-29 8.92937,-9.46752 18.47175,-9.93559 30.33594,-5.03516 z"
     fill="#fafafa"
     id="path11" />
  <path
     d="m 409,621 c 9.07333,4.55292 15.24035,11.64907 19,21 2.1764,6.92359 2.33995,15.36321 -1,21.875 -8.07624,12.25977 -23.03062,18.50189 -36.875,21.8125 C 375.72618,687.12738 364.62568,683.70653 353,675 c -2.67127,-2.26436 -5.26019,-4.58291 -7.80859,-6.98438 -2.66831,-2.59264 -5.46017,-2.95585 -6.53463,-6.69147 L 338,657 c -0.67297,-6.57887 -0.6048,-8.25563 2.4375,-12 1.27001,-0.91544 2.45892,-1.89642 3.5625,-3 3.49381,-0.17034 6.98092,-0.29707 10.47852,-0.3418 7.16058,0.0198 13.07677,-5.16616 14.14648,-10.2207 1.16192,-10.14459 10.74995,-8.98953 18.4375,-9.0625 3.42448,-0.0793 6.84878,-0.15989 10.27368,-0.21729 C 401.58143,621.90637 404.64705,620.43573 409,621 Z"
     fill="#fcfcfc"
     id="path12" />
  <path
     d="m 602.17187,443.75 c 8.41529,6.16632 17.17328,12.80555 20.69253,22.89407 0.8324,2.05239 -0.23297,7.05209 -3.45306,8.75933 -14.85696,9.7261 -30.34062,12.46847 -47.87619,10.13566 -17.2803,-3.86025 -32.07701,-16.35818 -41.83203,-30.79297 C 525.23405,447.54023 521.60679,440.35534 520,432 c 27.35465,-9.81962 58.47628,-4.51031 82.17187,11.75 z"
     fill="#ed7066"
     id="path13" />
  <path
     d="m 738.4375,575 c 9.89436,5.82407 18.81995,13.41992 21.5625,25 1.21112,11.57051 -3.19406,20.87041 -10,30 -7.30143,8.85799 -17.82292,15.79838 -28,21 l -1.54237,-0.9767 C 720.3254,645.04283 724.81907,637.8711 722,634 c -3.27207,-3.81782 -8.16408,-5.61788 -12.69531,-7.65625 -6.95571,-3.69818 -5.56951,-7.74941 -5.65625,-18.81055 0.67744,-8.15008 -3.54789,-9.73127 -14.78403,-15.88913 9.63954,-9.72846 28.10735,-27.63591 49.57309,-16.64407 z"
     fill="#fcfcfb"
     id="path14" />
  <path
     d="m 674.51953,346.65625 c 2.74252,2.48925 4.31515,4.31458 4.91406,8.04297 0.0149,11.3605 -3.22466,17.7718 -10.99218,26 -6.845,6.45072 -14.01188,10.84052 -23.57032,10.61328 -14.4977,-1.57798 -29.21077,-9.5623 -38.79297,-20.50781 C 602.4396,365.83203 600.54034,361.22301 601,355 c 1.47123,-5.3595 4.74393,-7.84163 9.33984,-10.60938 17.8829,-9.34847 47.09522,-9.30646 64.17969,2.26563 z"
     fill="#2f2f2f"
     id="path15" />
  <path
     d="m 597.6875,774.125 c 8.30422,3.14135 14.63338,8.84997 20.95312,14.92187 2.38987,1.97837 4.43357,2.97786 7.35938,3.95313 l -0.54237,2.08475 c -6.46326,4.12681 -26.31556,5.07475 -41.99669,29.39962 C 578.21564,833.51639 576.01913,841.58056 575,852 563.0727,842.66559 555.06257,835.94017 552.81356,820.61017 552.68065,815.61141 550.45282,805.0504 552,801 c 19.75459,0.58102 31.63006,-2.65346 32,-5 -0.69018,-4.64505 -4.06418,-8.03869 -6.92188,-11.52344 C 574.78632,781.07765 567.39598,777.01269 570,774 c 6.85909,-3.42955 20.4697,-1.82576 27.6875,0.125 z"
     fill="#e69327"
     id="path16" />
  <path
     d="m 292,733 c -5.27633,8.76412 -10.86322,21.38291 -11.82102,31.77265 -0.22244,4.88522 2.15236,5.35961 6.02441,8.95616 2.43185,1.83426 7.37988,2.05014 10.56514,2.48769 9.62882,1.32658 19.24525,2.73889 28.86575,4.12334 2.6141,0.72947 3.66425,1.58819 5.36572,3.66016 -4.91373,2.84671 -9.6103,6.1002 -15,8 2.41705,2.88092 5.44009,4.39833 11,7 -11.15122,5.66492 -22.37511,8.3828 -34.80859,5.30469 -1.10269,-0.45484 -20.54843,-8.70658 -24.7461,-26.67969 C 265.58378,766.65174 267.49725,754.50824 271,744 l -33.27119,0.13559 c 4,-7 4.27119,-7.13559 6.03804,-8.53574 2.42998,-1.20286 8.13805,-1.10209 12.23591,-1.31627 C 263.51639,733.57526 279.46797,734.3878 292,733 Z"
     fill="#e59229"
     id="path17" />
  <path
     d="m 376,600 c 2.56321,4.64347 5.59283,5.71439 7.97034,7.98093 6.95054,6.1614 15.41339,8.73349 24.02966,12.01907 v 1 c -8.19569,2.5233 -16.27858,2.3531 -24.79688,2.39062 -2.16272,0.0608 -4.3259,0.0777 -6.48925,0.0952 -3.40262,0.64466 -6.48039,2.78983 -6.71387,4.51417 -1.07266,4.29452 -1.24312,8.16313 -4.5,11.5 -9.52584,5.7155 -15.01826,2.42953 -24.52344,5.58984 -2.4781,3.64859 -2.71249,8.75677 -1.97656,16.91016 -3.98464,-3.53391 -6.71693,-8.11826 -9.41602,-12.6416 C 324.72696,641.04741 320.04849,632.14548 317,623 c 10.89014,2.76025 18.10995,3.99178 27.77066,-1.85375 C 349.08059,617.39114 352.57954,613.55189 356,609 c 5.78716,-7.57372 10.66534,-9.76201 20,-9 z"
     fill="#e59125"
     id="path18" />
  <path
     d="m 378,190 h 2 c 4.49295,8.5368 10.53108,4.38272 22,25 l -1.15055,2 c -7.24997,0.28308 -12.75906,-0.49026 -19.84945,-2 1.70026,4.83984 3.20949,7.31014 11.24574,15.18324 C 393.80824,231.80824 394,232 394,234 c -23.43643,11 -23.43643,11 -27,11 -0.007,4.57309 7.27641,6.29026 11,8 -1.47002,4.51243 -6.845,6.76907 -10.69061,8.77094 C 351.97505,269.60401 352.74208,268.83698 345,268 c -1.625,-2.75 -1.625,-2.75 -3,-6 1.22908,-3.88676 4.07105,-6.10406 7,-8.8125 17.34039,-16.76659 26.02454,-39.61869 29,-63.1875 z"
     fill="#e48e23"
     id="path19" />
  <path
     d="m 659.6875,176.5625 c 1.12712,-0.01 2.25425,-0.0197 3.41553,-0.0298 11.00393,0.1108 22.68467,1.98932 31.89697,8.46729 1.27344,2.16016 1.27344,2.16016 2,4 -1.49994,1.49994 -2.9466,1.31608 -5.03516,1.53516 -0.80888,0.087 -1.61777,0.17402 -2.45117,0.26367 -0.85013,0.087 -1.70027,0.17402 -2.57617,0.26367 -0.854,0.0909 -1.70801,0.18176 -2.58789,0.27539 -2.11613,0.22462 -4.23282,0.44386 -6.34961,0.66211 3.63703,3.70709 7.40858,7.06948 11.42578,10.35156 C 691,204 691,204 691,207 c -5.7776,0.12037 -11.2796,-0.16794 -17,-1 0.43313,0.60328 0.86625,1.20656 1.3125,1.82812 0.55687,0.79922 1.11375,1.59844 1.6875,2.42188 0.83531,1.18336 0.83531,1.18336 1.6875,2.39062 C 680,215 680,215 680,219 c -3.13781,-0.61615 -5.25472,-1.65453 -7.87109,-3.47656 -0.73364,-0.50306 -1.46728,-1.00612 -2.22315,-1.52442 -1.15991,-0.80389 -1.15991,-0.80389 -2.34326,-1.62402 C 660.25918,207.39742 652.89985,202.96388 645,199 c 1,-3 1,-3 3.43359,-4.38672 0.99129,-0.42926 1.98258,-0.85851 3.00391,-1.30078 0.98871,-0.43699 1.97742,-0.87398 2.99609,-1.32422 C 657,191 657,191 659,191 c 0,-0.99 0,-1.98 0,-3 -0.74508,-0.12246 -1.49016,-0.24492 -2.25781,-0.37109 -5.20951,-0.87551 -10.41306,-1.78453 -15.61719,-2.69141 -1.06992,-0.18627 -2.13984,-0.37254 -3.24219,-0.56445 C 635.25517,183.91556 632.62757,183.45787 630,183 c 1,-2 1,-2 3.42969,-3.07031 8.77984,-2.68771 17.07855,-3.33072 26.25781,-3.36719 z"
     fill="#e28e22"
     id="path20" />
  <path
     d="m 530,302 c 15.24611,6.01528 18.701,23.13099 13.3125,34.625 -7.8894,13.11157 -19.05848,8.40613 -22.6875,6.6875 -5.39686,-4.75438 -9.00607,-9.84529 -9.90199,-17.11719 -0.92297,-10.49012 0.98414,-17.06929 4.3182,-20.57883 C 518.38095,301.1075 524.77364,301.11177 530,302 Z"
     fill="#30302f"
     id="path21" />
  <path
     d="m 679,282 c 6.35042,2.11681 10.17279,6.58808 13.26562,12.36328 2.78521,6.30593 4.19284,12.17554 2.00391,18.87109 -4.8676,12.60454 -18.34095,9.41495 -22.55343,6.92082 C 665.52832,315.93624 663.40774,310.37996 662,303 c -0.55702,-6.39501 -0.24583,-11.40374 3,-17 4.06387,-4.66149 8.18083,-4.82541 14,-4 z"
     fill="#2f302f"
     id="path22" />
  <path
     d="m 503,672 c 7.57662,-0.62737 31.68888,19.77384 39,35 -10.01444,4.03268 -26.2307,-16.12784 -33.32007,-23.73755 C 503,677.02564 503,677.02564 503,672 Z"
     fill="#f7f7f7"
     id="path23" />
  <path
     d="m 431,577 c 2.62187,1.04875 3.79371,1.64931 5.25,4.125 0.2475,0.61875 0.495,1.2375 0.75,1.875 -7.94244,7.90942 -16.27559,13.50897 -26,19 -0.91008,0.59039 -1.82016,1.18078 -2.75781,1.78906 C 406,605 406,605 403,604.4375 c -3.08693,-1.47916 -5.37141,-3.26625 -8,-5.4375 0.5576,-0.31115 1.1152,-0.6223 1.6897,-0.94287 C 408.44945,591.4736 419.92706,584.68813 431,577 Z"
     fill="#f6f6f6"
     id="path24" />
  <path
     d="m 719,313 c 1.10329,0.43315 22,14.55825 22,28 -8.11967,-3.01723 -15.42948,-7.84341 -30.77966,-8.18644 l 1.6195,-2.54012 C 714.92933,324.72109 718.35715,319.47164 719,313 Z"
     fill="#e28d24"
     id="path25" />
  <path
     d="m 654.40254,345.96236 c 3.51319,1.82165 5.16776,2.61201 6.59746,6.03764 -3.91246,-0.1024 -12.42223,-0.1039 -15.88425,-0.0923 -3.29169,0.13108 -8.45829,-0.5595 -11.06781,-1.69195 -0.40996,-0.3555 -0.0984,-3.90302 1.92809,-4.69512 3.92814,-1.54908 13.95619,-1.49015 18.42651,0.44175 z"
     fill="#f3f3f3"
     id="path26" />
</svg>
