<?xml version="1.0" encoding="UTF-8" standalone="no"?>
<svg
   version="1.1"
   width="686.59302"
   height="774.25739"
   id="svg31"
   xmlns="http://www.w3.org/2000/svg"
   xmlns:svg="http://www.w3.org/2000/svg">
  <defs
     id="defs31" />
  <path
     d="m 502.50513,0.00328827 c -0.56821,5.45479193 -1.94638,9.91059263 -4,14.99999973 0.49886,-0.242344 0.99773,-0.484687 1.51172,-0.734375 15.44172,-7.2079839 31.94435,-10.4936238 48.92578,-10.5781247 0.81098,-0.00548 1.62196,-0.010957 2.45752,-0.016602 3.87121,0.047905 5.81558,0.1361708 9.10498,2.3291016 -0.21485,1.828125 -0.21485,1.828125 -1,3.9999997 -2.06641,1.484375 -2.06641,1.484375 -4.5625,2.75 -0.82629,0.427969 -1.65258,0.855938 -2.50391,1.296875 -0.95713,0.471797 -0.95713,0.471797 -1.93359,0.953125 1.05316,0.400898 2.10632,0.801797 3.1914,1.214844 21.83441,8.516515 39.02731,21.633714 55.8086,37.785156 0.59377,0.566543 1.18755,1.133086 1.79932,1.716797 19.99351,19.152298 19.99351,19.152298 21.32568,28.345703 -0.125,3.9375 -0.125,3.9375 -2.125,5.9375 -6.71354,0.886694 -11.48695,-1.209791 -17.65625,-3.753906 -4.69142,-1.748323 -9.39638,-2.581818 -14.34375,-3.246094 0.165,0.763125 0.33,1.52625 0.5,2.3125 0.6582,4.854249 0.5,9.788831 0.5,14.687502 -7.26,0 -14.52,0 -22,0 1.67062,2.7225 1.67062,2.7225 3.375,5.5 5.02085,8.67238 5.95478,15.53313 5.625,25.5 -4.36668,0 -5.12598,-0.48209 -8.5,-2.9375 -2.83853,-2.05599 -5.02859,-3.43922 -8.5,-4.0625 2.67007,8.32436 7.34418,14.99941 12.15234,22.24219 5.72706,8.79326 10.66748,17.93921 15.47266,27.25781 0.49269,0.95075 0.49269,0.95075 0.99533,1.92072 6.07231,11.72857 6.07231,11.72857 8.62576,17.68865 4.45188,10.29396 9.90521,14.90683 19.75391,19.89063 1.32388,0.71175 2.64679,1.42532 3.96875,2.14062 8.41857,4.45954 16.97082,7.9004 26.03125,10.85938 2,0.66667 4,1.33333 6,2 0.3125,2.25 0.3125,2.25 0,5 -5.83675,6.00842 -13.08189,6.40536 -21,7 14.20081,10.63711 27.67822,17.7303 45,22 0.11719,2.37109 0.11719,2.37109 0,5 -5.79823,6.37806 -14.38891,8.15873 -22.625,8.75 -2.1243,0.0996 -4.24925,0.18874 -6.375,0.25 0.26555,0.84562 0.53109,1.69125 0.80469,2.5625 0.73331,2.35518 1.45679,4.71344 2.17187,7.07422 0.55457,1.82244 1.1188,3.64256 1.73438,5.44531 2.18506,7.01437 1.44767,14.6572 1.28906,21.91797 -2.28516,0.23437 -2.28516,0.23437 -5,0 -1.80859,-1.60938 -1.80859,-1.60938 -3.4375,-3.75 -2.77377,-3.60924 -5.69889,-5.83728 -9.5625,-8.25 0.0209,0.60771 0.0419,1.21542 0.0635,1.84155 0.79979,26.87163 -4.41538,49.75576 -23.31348,69.84595 -1.89062,1.94922 -1.89062,1.94922 -3.75,3.3125 -1.32,0 -2.64,0 -4,0 0.33,-6.27 0.66,-12.54 1,-19 -0.66,0 -1.32,0 -2,0 -0.2359,0.68578 -0.4718,1.37156 -0.71484,2.07812 -11.12822,25.30063 -38.81406,41.00294 -62.09766,53.29688 -0.94223,0.50008 -1.88445,1.00015 -2.85523,1.51538 -6.2815,3.25537 -12.62798,5.85398 -19.33229,8.10962 1.51231,12.8746 5.01253,25.38638 15.375,34.0625 0.86625,0.63937 1.7325,1.27875 2.625,1.9375 -1,3 -1,3 -3.14453,4.13281 -0.88043,0.32742 -1.76086,0.65485 -2.66797,0.99219 -1.30905,0.49887 -1.30905,0.49887 -2.64453,1.00781 -4.28152,1.46006 -7.74286,1.98386 -12.29297,1.92969 -0.98485,-0.009 -1.96969,-0.0181 -2.98438,-0.0273 -1.12148,-0.0174 -1.12148,-0.0174 -2.26562,-0.0352 0.33,0.66 0.66,1.32 1,2 0.23511,2.82134 0.38206,5.64125 0.52343,8.46875 0.15727,0.83531 0.31454,1.67062 0.47657,2.53125 3.40927,2.27285 5.23186,2.34716 9.23047,1.78516 9.47693,-2.6867 18.05867,-9.58437 26.14941,-15.05664 15.68932,-10.55746 29.13245,-17.195 48.51856,-14.29493 12.92056,3.36604 23.63726,11.90462 31.27734,22.61719 6.30451,10.75178 6.91604,22.89094 3.96484,34.91797 -5.6161,17.38685 -18.71142,31.62267 -34.14062,41.03125 -0.55607,0.34096 -1.11214,0.68191 -1.68506,1.0332 -14.28438,8.65998 -29.31138,14.91388 -45.25244,19.8418 -0.92241,0.28633 -1.84481,0.57267 -2.79517,0.86768 -11.22185,3.33517 -22.07573,4.61902 -33.76733,4.63232 -1.13309,0.0245 -2.26618,0.049 -3.4336,0.0742 -11.8698,0.0408 -21.29976,-3.37633 -31.1914,-9.76172 -1.15049,-0.72522 -1.15049,-0.72522 -2.32422,-1.46509 -2.19409,-1.39193 -4.37434,-2.80306 -6.55078,-4.22239 -1.63582,-1.05574 -1.63582,-1.05574 -3.30469,-2.13281 -6.94715,-4.65157 -6.94715,-4.65157 -8.69531,-8.86719 -2.6956,3.31445 -5.22731,6.69578 -7.6875,10.1875 -7.29298,10.01782 -15.86241,18.36086 -24.95703,26.71094 -0.58218,0.54237 -1.16435,1.08474 -1.76416,1.64355 -1.31334,1.20332 -2.67161,2.35739 -4.04053,3.49707 -1.7878,1.93278 -1.7878,1.93278 -2.01563,4.85547 1.45735,9.73608 11.28612,18.79599 17.46485,26.10547 0.80953,0.99516 1.61906,1.99031 2.45312,3.01562 9.89342,12.09447 20.84512,23.41989 33.14063,33.08594 3.02109,2.38353 5.88512,4.92082 8.75,7.48828 3.76806,3.20819 5.78161,3.77806 10.65625,3.41016 1.81819,-0.47138 3.636,-0.94429 5.45141,-1.42627 11.32107,-2.54857 22.87083,-2.89808 34.42237,-2.83447 2.32293,0.0108 4.6451,-1e-5 6.96801,-0.0127 19.99239,-0.0184 40.22785,3.00888 55.38868,17.33985 10.63541,11.62148 15.42135,24.31542 15.11719,39.90234 -0.37809,6.77082 -3.31659,11.67081 -7.66016,16.71875 -0.88688,0.76312 -1.77375,1.52625 -2.6875,2.3125 -0.54447,0.51385 -1.08894,1.02771 -1.6499,1.55713 -5.1208,4.73376 -10.45983,7.99058 -16.6626,11.13037 -0.87334,0.45955 -1.74668,0.9191 -2.64649,1.39258 -19.60312,10.11169 -41.27714,14.57347 -63.04101,16.91992 -0.75137,0.0943 -1.50273,0.18853 -2.27686,0.28564 -8.0936,0.95029 -16.21031,0.95597 -24.34814,0.96436 -0.76736,10e-4 -1.53471,0.003 -2.32532,0.004 -10.00001,-0.004 -19.86297,-0.32388 -29.79968,-1.56656 -0.94956,-0.11763 -1.89911,-0.23525 -2.87744,-0.35645 -14.08907,-2.0153 -22.47787,-10.03057 -31.66944,-20.33886 -2.39353,-2.67783 -4.89119,-5.22383 -7.45312,-7.74219 -3.32327,-3.27613 -6.40204,-6.67738 -9.4375,-10.21875 -2.73905,-3.06962 -5.68934,-5.91654 -8.61719,-8.80469 -2.63538,-2.67289 -5.07297,-5.48024 -7.51562,-8.32812 -1.66174,-1.87815 -3.39095,-3.6415 -5.17969,-5.39844 -3.03255,-2.98537 -5.83833,-6.1108 -8.61719,-9.33203 -2.09856,-2.4164 -4.23721,-4.79326 -6.38281,-7.16797 -2.6318,-2.91489 -5.24287,-5.84273 -7.8125,-8.8125 -3.15826,-3.62942 -6.41685,-7.15977 -9.6875,-10.6875 -3.83107,-4.13219 -7.61635,-8.29039 -11.30078,-12.55469 -1.99328,-2.28196 -4.03415,-4.5176 -6.07422,-6.75781 -3.96152,-4.38525 -7.70552,-8.91504 -11.41797,-13.51172 -2.72247,-3.30069 -5.57735,-6.46341 -8.48047,-9.60547 -1.72656,-2.07025 -1.72656,-2.07025 -3.08203,-4.48431 -2.0678,-3.25151 -4.71046,-5.57194 -7.58203,-8.08594 -4.72216,-4.23796 -9.1699,-8.61678 -13.4375,-13.3125 -0.50257,-0.55132 -1.00515,-1.10263 -1.52295,-1.67065 -1.3687,-1.50439 -2.73545,-3.01055 -4.10205,-4.51685 -5.39918,-5.89401 -11.44332,-10.43523 -18,-15 6.91354,19.79229 18.714,31.79867 36,43 7.0928,4.68846 7.0928,4.68846 9,9 -17.83149,8.74183 -35.72945,17.20492 -54,25 -0.98774,0.42233 -1.97549,0.84466 -2.99316,1.27979 -11.69451,4.98212 -23.46959,9.74458 -35.31934,14.34521 -1.12205,0.43836 -2.2441,0.87672 -3.40015,1.32837 -1.03971,0.39953 -2.07942,0.79906 -3.15063,1.21069 -0.92079,0.3553 -1.84159,0.7106 -2.79028,1.07666 -2.34644,0.75928 -2.34644,0.75928 -5.34644,0.75928 0.72059,0.70641 1.44117,1.41281 2.18359,2.14062 2.75732,2.76218 5.34043,5.64325 7.87891,8.60938 0.8366,0.96422 1.6732,1.92844 2.53516,2.92187 5.19954,6.73992 7.15918,13.58145 7.08984,22.01563 -0.004,1.2995 -0.004,1.2995 -0.009,2.62524 -0.35494,10.54579 -4.77484,18.76305 -11.67871,26.68726 -12.56888,11.08455 -28.42298,14.86954 -44.77637,14.16602 -16.20543,-1.20991 -32.48808,-10.26272 -44.22342,-21.16602 -0.58604,-0.53448 -1.17208,-1.06896 -1.77588,-1.61963 -10.55694,-9.71638 -18.96196,-20.00855 -26.22412,-32.38037 -0.35385,-0.5999 -0.7077,-1.19979 -1.07227,-1.81787 -10.789373,-18.75167 -18.635443,-43.5732 -14.310543,-65.27979 3.29221,-9.19197 10.74021,-18.25949 19.382813,-22.90234 6.22597,-2.22182 12.57821,-2.75407 19.125,-3.4375 41.35127,-3.4267 41.35127,-3.4267 75.10156,-25.29297 1.68446,-2.37904 3.27336,-4.77111 4.77344,-7.26953 -3.65697,1.21899 -6.6792,3.17649 -9.9375,5.1875 -19.69155,11.93944 -40.67956,20.51308 -64.0625,18.8125 -0.99,-0.33 -1.98,-0.66 -3,-1 0.125,-1.75 0.125,-1.75 1,-4 2.8125,-2.0625 2.8125,-2.0625 6,-4 1.34158,-0.98891 2.67672,-1.98673 4,-3 -1.0725,0.14437 -2.145,0.28875 -3.25,0.4375 -21.58337,2.65489 -45.851953,4.49242 -66.750003,-2.4375 -0.62987,-0.20367 -1.25974,-0.40734 -1.90869,-0.61719 -9.17371,-3.06816 -16.9757,-7.81942 -23.09131,-15.38281 0,-1.32 0,-2.64 0,-4 0.83145,-0.0606 1.66289,-0.12117 2.51953,-0.18359 1.08668,-0.0838 2.17336,-0.16758 3.29297,-0.25391 1.07895,-0.0812 2.15789,-0.16242 3.26953,-0.24609 2.97787,-0.21853 2.97787,-0.21853 5.91797,-1.31641 -1.01707,-0.61875 -1.01707,-0.61875 -2.05469,-1.25 -26.91487,-16.70064 -46.39342,-41.13087 -54.94531,-71.75 -0.4776,-1.53334 -0.4776,-1.53334 -0.96484,-3.09766 -2.18883005,-8.14001 -2.37463005,-16.19628 -2.47266005,-24.58984 -0.0223,-1.1405 -0.0446,-2.281 -0.06759999688,-3.45605 C 0.02622695,455.09523 2.079967,445.6332 8.505157,438.00329 c 1.9375,-1.1875 1.9375,-1.1875 4,-1 1.70422,1.62825 3.374,3.29364 5,5 0.14695,-1.39799 0.14695,-1.39799 0.29688,-2.82422 2.69598,-22.98589 12.04891,-40.91971 29.70309,-56.17578 6.50185,-4.73018 13.64307,-9.18764 22,-8 3.16555,1.48462 4.71413,2.47473 6.40283,5.57764 0.36465,1.02367 0.72929,2.04735 1.10498,3.10205 0.42378,1.1467 0.84756,2.2934 1.28418,3.47485 0.43989,1.22775 0.87979,2.4555 1.33301,3.72046 6.1829,16.62385 13.77683,32.48878 23.875003,47.125 0.42894,0.63357 0.85787,1.26715 1.2998,1.91992 6.33844,9.34673 12.90649,17.89262 20.7002,26.08008 1.72913,1.97064 3.43775,3.95649 5.13672,5.95312 5.33031,5.85553 10.97506,10.91193 17.30078,15.67188 0.71221,0.54656 1.42441,1.09312 2.1582,1.65625 4.64154,3.52436 9.40769,6.71994 14.4043,9.71875 0.0811,-2.75059 0.14053,-5.49879 0.1875,-8.25 0.0251,-0.7773 0.0503,-1.55461 0.0762,-2.35547 0.0584,-4.55516 -0.12366,-6.88226 -3.26367,-10.39453 -0.54075,-4.78952 -0.57651,-6.94993 1.75,-11.1875 0.7425,-0.92813 1.485,-1.85625 2.25,-2.8125 0.58266,-0.77988 1.16531,-1.55977 1.76563,-2.36328 2.48656,-2.93432 5.21047,-5.29024 8.23437,-7.63672 0.6032,-0.4693 1.2064,-0.9386 1.82788,-1.42212 28.1932,-21.52007 60.86314,-37.2067 92.17209,-53.57788 -0.68965,-0.44988 -1.3793,-0.89977 -2.08984,-1.36328 -9.40529,-6.43791 -16.87041,-14.33809 -21.91016,-24.63672 0,-0.66 0,-1.32 0,-2 -0.66,0 -1.32,0 -2,0 0.31952,7.64643 0.89793,14.60326 3.36719,21.86719 0.81753,2.7554 0.858,5.28038 0.63281,8.13281 -12.34252,0.67011 -21.96635,-7.18787 -30.73755,-15.03467 -5.11034,-4.70272 -9.88822,-9.56231 -14.26245,-14.96533 -0.69754,-0.85586 -0.69754,-0.85586 -1.40918,-1.729 -6.90542,-8.55749 -12.45532,-17.15195 -17.06738,-27.13819 -1.31905,-3.1462 -1.31905,-3.1462 -3.52344,-5.13281 -0.47437,1.0725 -0.94875,2.145 -1.4375,3.25 -0.26684,0.60328 -0.53367,1.20656 -0.80859,1.82812 -1.75718,4.47944 -2.04126,8.89955 -2.31641,13.67188 -0.0648,1.04607 -0.0648,1.04607 -0.13086,2.11328 -0.10554,1.71204 -0.20654,3.42436 -0.30664,5.13672 -1.79297,0.64062 -1.79297,0.64062 -4,1 -6.62287,-3.27284 -10.60678,-10.7931 -14,-17 -0.43828,-0.79793 -0.87656,-1.59586 -1.32812,-2.41797 -5.10909,-11.31555 -4.36142,-26.45184 -0.35938,-38.01953 1.64114,-4.33202 3.56932,-8.44417 5.6875,-12.5625 -1.03834,0.43313 -1.03834,0.43313 -2.09766,0.875 -8.79591,3.33758 -18.4495,5.26672 -27.63281,2.21875 -2.20703,-1.09375 -2.20703,-1.09375 -5.26953,-3.09375 0.0977,-1.73828 0.0977,-1.73828 1,-4 2.12731,-1.54741 4.17561,-2.87115 6.4375,-4.1875 13.26137,-8.12761 23.0122,-18.22196 30.5625,-31.8125 -8.91,-0.33 -17.82,-0.66 -27,-1 -0.33,-1.32 -0.66,-2.64 -1,-4 2.64254,-3.54828 6.78699,-4.97233 10.6875,-6.8125 5.92309,-2.89068 11.37973,-5.75016 16.3125,-10.1875 0.73477,-0.65484 1.46953,-1.30969 2.22656,-1.98438 14.09492,-13.29353 21.18315,-30.9322 22.77344,-50.01562 -6.35015,3.42294 -6.35015,3.42294 -12.375,7.375 -0.86625,0.53625 -1.7325,1.0725 -2.625,1.625 -0.99,-0.33 -1.98,-0.66 -3,-1 -2.75034,-5.50068 -0.93922,-11.80241 0.875,-17.3125 1.18387,-3.35429 2.46556,-6.54055 4.125,-9.6875 -0.87398,0.38672 -1.74797,0.77344 -2.64844,1.17187 -19.47969,8.37344 -37.21216,9.41546 -58.35156,8.82813 -1.13965,-4.76416 -1.13965,-4.76416 0.11719,-6.88672 0.58008,-0.59426 1.16015,-1.18851 1.75781,-1.80078 0.95906,-1.01514 0.95906,-1.01514 1.9375,-2.05078 0.72188,-0.74637 1.44375,-1.49274 2.1875,-2.26172 1.63149,-1.78575 3.25646,-3.57749 4.875,-5.375 1.14082,-1.2491 1.14082,-1.2491 2.30469,-2.52344 1.85708,-1.96879 1.85708,-1.96879 2.82031,-4.10156 -1.6977,0.67482 -1.6977,0.67482 -3.42969,1.36328 -4.49485,1.68038 -9.0045,2.83503 -13.69531,3.82422 -0.82097,0.17362 -1.64194,0.34724 -2.48779,0.52612 -7.14563,1.41455 -14.099773,1.98314 -21.387213,1.28638 -1,-1 -1,-1 -1.21606,-3.31885 0.24414,-3.02959 0.8698,-4.17662 2.67309,-6.57959 0.53005,-0.71913 1.06009,-1.43827 1.6062,-2.1792 0.57726,-0.75813 1.15452,-1.51626 1.74927,-2.29736 0.5895,-0.79293 1.17901,-1.58587 1.78638,-2.40283 1.21169,-1.6294 2.42778,-3.25554 3.64819,-4.87842 1.593643,-2.13077 3.160613,-4.27719 4.713873,-6.4375 5.70316,-7.92391 11.67922,-15.49748 18.03906,-22.90625 0.55688,-0.66902 1.11375,-1.33805 1.6875,-2.027346 3.9051,-4.617782 8.1281,-8.921653 12.375,-13.222656 0.59007,-0.60312 1.18014,-1.20624 1.78809,-1.827637 3.48549,-3.492314 6.88444,-6.42157 11.14941,-8.922363 0.66,0 1.32,0 2,0 0,-0.66 0,-1.32 0,-2 -0.79664,0.144375 -1.59328,0.28875 -2.41406,0.4375 -1.58942,0.278437 -1.58942,0.278437 -3.21094,0.5625 -1.56621,0.278437 -1.56621,0.278437 -3.16406,0.5625 -3.11669,0.424658 -6.07025,0.512952 -9.21094,0.4375 -0.34903,-3.05403 -0.15651,-4.709331 1.3125,-7.4375 13.31715,-12.697745 40.79755,-21.871824 59.0625,-21.625 1.31098,0.01353 1.31098,0.01353 2.64844,0.02734 0.65226,0.0116 1.30453,0.0232 1.97656,0.03516 -4.29976,-4.87306 -9.37224,-7.820044 -15,-11 0.33,-0.99 0.66,-1.98 1,-3 2.36348,-0.874246 4.56476,-1.536209 7,-2.125 0.63551,-0.168867 1.27102,-0.337734 1.92578,-0.511719 9.04647,-2.302408 18.08811,-2.56817 27.38672,-2.613281 1.57685,-0.03094 1.57685,-0.03094 3.18555,-0.0625 26.10285,-0.128348 47.90277,14.395638 66.09179,31.789062 1.82718,1.817541 3.62317,3.666372 5.41016,5.523438 0,-5.61 0,-11.22 0,-17 7.33565,1.222608 9.43776,3.459484 14,9 4.59469,6.520795 11,15.85653 11,24 0.84256,-0.241216 0.84256,-0.241216 1.70215,-0.487305 10.22072,-2.906582 20.43286,-5.695141 30.86035,-7.762695 0.75829,-0.150498 1.51658,-0.300996 2.29785,-0.456055 1.5442,-0.29581 3.09085,-0.579028 4.63941,-0.851074 1.71914,-0.304514 3.43357,-0.63652 5.14306,-0.991211 11.30786,-2.114332 22.7118,-1.669949 34.16968,-1.57666 2.1569,0.01005 4.31379,0.01917 6.4707,0.02734 5.23903,0.02184 10.47789,0.05515 15.7168,0.09766 0.18647,-0.597571 0.37294,-1.195142 0.56506,-1.810822 1.33609,-4.163767 2.60441,-8.005532 5.02869,-11.681366 0.47308,-0.724453 0.94617,-1.448906 1.43359,-2.195312 0.48598,-0.721875 0.97195,-1.44375 1.47266,-2.1875 0.72896,-1.117617 0.72896,-1.117617 1.47265,-2.257813 4.42261,-6.700183 4.42261,-6.700183 7.02735,-8.867187 0.99,0 1.98,0 3,0 1.53266,3.065332 1.10276,6.267543 1.0625,9.625 -0.005,0.706406 -0.009,1.412812 -0.0137,2.140625 -0.0118,1.744828 -0.0297,3.489612 -0.0488,5.234375 0.66,0 1.32,0 2,0 0.0902,-0.685781 0.18047,-1.371563 0.27343,-2.078125 0.8904,-3.580738 2.50258,-6.516929 4.35157,-9.671875 0.35973,-0.619072 0.71945,-1.238145 1.09008,-1.875977 5.35332,-9.045134 12.16148,-16.683803 19.28492,-24.374023 0.77537,-0.891387 0.77537,-0.891387 1.5664,-1.800781 8.10973,-8.871995 19.33743,-17.39431814 31.4336,-17.19921873 z"
     fill="#2e2e2e"
     id="path2" />
  <path
     d="m 452.63794,95.886098 c 7.63415,8.145232 8.48333,17.294942 9.57342,27.994902 0.39272,3.81621 0.82908,7.62737 1.26642,11.43869 0.0862,0.75255 0.17233,1.50509 0.26111,2.28044 2.94174,25.31286 8.73594,55.82512 29.70373,72.84066 3.45375,2.42641 6.84591,3.56207 10.86719,4.73437 2.36704,0.89291 3.87269,1.97619 5.82031,3.57813 14.59456,11.6582 32.96171,14.83537 51.10938,12.96875 4.18612,-0.77191 7.28254,-2.27494 10.95313,-4.40625 6.99435,-3.69328 14.27459,-2.50739 21.75,-0.73438 2.23716,0.70734 4.38364,1.5518 6.5625,2.42188 0.99515,0.32742 1.99031,0.65484 3.01562,0.99218 20.17196,6.93113 31.55407,22.75056 40.98438,41.00782 4.65153,10.15624 4.65153,10.15624 3,15 -0.81791,-0.77924 -0.81791,-0.77924 -1.65235,-1.57422 -5.10568,-4.72167 -10.11218,-8.35419 -16.34765,-11.42578 -0.66,-0.33 -1.32,-0.66 -2,-1 0.33773,0.77343 0.67547,1.54687 1.02343,2.34375 0.44602,1.04156 0.89204,2.08312 1.35157,3.15625 0.44086,1.02093 0.88172,2.04187 1.33593,3.09375 3.02473,7.99261 3.64585,14.97451 3.60157,23.46875 -0.005,1.10819 -0.01,2.21638 -0.0149,3.35815 -0.18819,13.22297 -2.62834,24.54617 -8.2976,36.57935 -1.85868,-2.78802 -2.49457,-4.46365 -3.3125,-7.625 -2.0283,-7.00685 -5.04001,-13.56417 -10.6875,-18.375 -0.12955,0.83918 -0.12955,0.83918 -0.26172,1.69531 -2.15876,12.31881 -6.44702,23.14448 -13.73828,33.30469 -0.51047,0.73347 -1.02094,1.46695 -1.54688,2.22265 -8.86479,12.09035 -20.00483,21.59335 -32.45312,29.77735 -0.61182,0.41346 -1.22365,0.82693 -1.85401,1.25293 -23.66863,15.959 -50.25329,24.66614 -78.146,29.74707 -1.12921,0.20754 -2.25843,0.41508 -3.42187,0.6289 -3.57064,0.51396 -6.97447,0.43323 -10.57813,0.3711 0,0.66 0,1.32 0,2 0.72188,0.28875 1.44375,0.5775 2.1875,0.875 1.76024,0.70409 3.5121,1.42995 5.25,2.1875 4.76679,1.74394 9.32575,1.97562 14.37183,1.9707 10.40585,0.14758 10.40585,0.14758 14.37817,3.9668 1.32054,1.62757 2.58099,3.30407 3.8125,5 1.1169,1.41738 2.23844,2.83111 3.36329,4.24218 2.38307,3.02304 4.75204,6.05486 7.07421,9.125 0.74057,0.97623 0.74057,0.97623 1.4961,1.97217 1.0664,1.66065 1.0664,1.66065 1.0664,3.66065 -9.56953,0.54167 -17.95575,-1.81593 -26,-7 0.52401,1.485 0.52401,1.485 1.0586,3 4.61058,13.2733 4.61058,13.2733 4.9414,20 0.0619,0.86367 0.12375,1.72734 0.1875,2.61718 0.56742,13.36968 -3.78112,27.23839 -11.1875,38.38282 -2.22159,2.15131 -4.55652,4.10642 -7,6 -0.10546,-0.72067 -0.21092,-1.44134 -0.31958,-2.18384 -0.4878,-3.29443 -0.99022,-6.58647 -1.49292,-9.87866 -0.24846,-1.7006 -0.24846,-1.7006 -0.50195,-3.43555 -0.92638,-5.99523 -2.09361,-11.02843 -4.68555,-16.50195 0,-0.99 0,-1.98 0,-3 -0.66,0.33 -1.32,0.66 -2,1 -0.47556,1.77812 -0.47556,1.77812 -0.75,4 -5.02879,26.98655 -21.94709,55.39978 -44.35693,71.51513 -4.44676,2.88184 -9.07226,5.29491 -13.89307,7.48487 -1.03382,0.47051 -2.06765,0.94101 -3.13281,1.42578 -5.82472,2.36071 -10.60408,2.98491 -16.86719,2.57422 0.31454,-0.81082 0.62907,-1.62164 0.95313,-2.45703 1.35708,-3.51125 2.70247,-7.02685 4.04687,-10.54297 0.38028,-0.97711 0.76055,-1.95422 1.15235,-2.96094 4.75344,-12.52038 5.09273,-23.77795 4.84765,-37.03906 -0.66,0 -1.32,0 -2,0 -1.56825,2.36848 -2.89596,4.83854 -4.26953,7.32422 -1.92709,2.97981 -4.15405,5.24808 -6.73047,7.67578 -0.17426,-0.52916 -0.34853,-1.05832 -0.52807,-1.60352 -5.36941,-16.16478 -11.6094,-31.901 -18.10597,-47.63537 -2.84459,-6.8982 -5.60478,-13.82914 -8.36596,-20.76111 -0.99,7.26 -1.98,14.52 -3,22 -3.92983,-1.30995 -5.38274,-3.74694 -7.6875,-7 -0.43844,-0.61722 -0.87688,-1.23444 -1.32861,-1.87036 -4.97691,-7.2471 -8.57078,-15.05397 -11.98388,-23.12964 -0.42153,-0.97711 -0.84305,-1.95422 -1.27735,-2.96094 -4.0388,-10.15036 -5.96509,-21.14165 -5.72265,-32.03906 1.7441,0.87011 1.7441,0.87011 3.52343,1.75781 17.32134,8.50473 34.16828,14.58719 53.47656,16.24219 -0.99,-4.95 -0.99,-4.95 -2,-10 0.86803,0.005 1.73605,0.0105 2.63038,0.0159 3.21663,0.017 6.43324,0.0296 9.6499,0.0391 1.39291,0.005 2.78581,0.0119 4.17871,0.0205 2.00063,0.0121 4.00129,0.0173 6.00195,0.0222 1.20447,0.005 2.40894,0.0105 3.6499,0.0159 2.83053,0.0874 2.83053,0.0874 4.88916,-1.11352 -0.97549,-0.41959 -0.97549,-0.41959 -1.9707,-0.84766 -18.27397,-7.89882 -36.0966,-16.51326 -53.83911,-25.53345 -3.05753,-1.55158 -6.12192,-3.08867 -9.19019,-4.61889 0.42898,5.14772 1.66357,8.77849 4.16016,13.30078 0.83984,1.69922 0.83984,1.69922 0.83984,3.69922 -20.3964,-6.08755 -40.75422,-22.71875 -53.99999,-39 -1.17563,-1.41926 -1.17563,-1.41926 -2.375,-2.86719 -13.91798,-17.17532 -21.82229,-35.72674 -19.625,-58.13281 0.97971,-3.47821 2.14763,-5.87414 4,-9 -0.9075,0.30937 -1.815,0.61875 -2.75,0.9375 -2.41564,0.78972 -4.77781,1.49199 -7.25,2.0625 1.32173,-11.28557 8.60757,-21.76983 17.27734,-28.86328 15.07885,-11.12453 34.04115,-16.45327 52.72266,-14.13672 4.8607,1.14018 9.50778,2.8271 14.17187,4.58984 12.90706,4.85097 29.33312,3.90796 41.82812,-1.58984 11.56405,-5.43339 20.90032,-11.46465 27,-23 0.68546,-2.37924 1.3089,-4.77707 1.875,-7.1875 1.24821,-4.98747 2.12932,-7.4428 6.4375,-10.3125 6.32939,-4.265 9.85293,-10.17932 11.6875,-17.5 2.54616,-18.09863 -1.62704,-35.00168 -10,-51 -0.48146,-0.9436 -0.48146,-0.9436 -0.97265,-1.90625 -13.53941,-26.35817 -34.92293,-43.73929 -63.02735,-53.093834 -9.51406,-3.000494 -19.1198,-5.541909 -28.99999,-7 0,-0.66 0,-1.32 0,-2 30.51635,-7.079891 74.9221,-16.255577 101.13281,6.882812 z"
     fill="#FCFCFC"
     id="path3"
     style="fill:#fffcfc;fill-opacity:1" />
  <path
     d="m 384.71888,285.76695 c 3.75148,0.23417 6.78549,0.90631 10.36633,2.01784 7.00399,2.10361 14.04333,3.94689 21.13867,5.7146 1.25978,0.31542 2.51955,0.63084 3.81751,0.95582 2.64834,0.66282 5.29709,1.32397 7.94616,1.98387 3.32394,0.82816 6.6468,1.66053 9.96939,2.49407 15.47463,3.88008 30.96611,7.64461 46.54819,11.07014 1.25442,0.27578 2.50884,0.55156 3.80127,0.8357 3.0013,0.6506 6.0051,1.28653 9.01123,1.9143 0.97002,0.20754 1.94004,0.41508 2.93946,0.62891 10.09984,2.11408 19.86814,2.86542 30.18554,2.99609 1.11569,0.0374 2.23137,0.0748 3.38086,0.11328 6.88675,0.0726 11.55577,-0.78883 17.46509,-4.40771 2.62871,-1.28149 4.32618,-1.42557 7.21655,-1.08057 0.99,0.99 0.99,0.99 2,2 -0.0875,3.32593 -0.71096,4.6929 -3,7.125 -5.13387,3.20867 -10.85328,5.46985 -17,4.875 -0.23976,0.67031 -0.47953,1.34063 -0.72656,2.03125 -5.02171,11.70705 -12.98295,21.60932 -21.89209,30.56836 -1.24259,1.25973 -2.44924,2.55467 -3.65088,3.85352 -14.57831,15.47087 -35.22714,26.86203 -56.66406,27.82031 -22.69955,0.59297 -39.72602,-6.01613 -56.61231,-21.82373 -16.44825,-16.39855 -25.53196,-37.22109 -25.7666,-60.38721 -0.029,-0.95068 -0.058,-1.90137 -0.0879,-2.88086 -0.0563,-6.28691 0.82637,-10.93056 4.40039,-16.18164 2,-2 2,-2 5.21375,-2.23634 z"
     fill="#2f2f2f"
     id="path4" />
  <path
     d="m 593.31763,693.37829 c 6.18903,7.42683 9.46259,14.29428 9.5625,24.125 0.0284,1.26844 0.0567,2.53687 0.0859,3.84375 -0.63852,5.06487 -2.57895,8.12936 -6.53125,11.33594 -1.01707,0.59168 -1.01707,0.59168 -2.05468,1.19531 -1.02481,0.61488 -1.02481,0.61488 -2.07032,1.24219 -1.80468,0.88281 -1.80468,0.88281 -3.80468,0.88281 -0.19336,-0.61488 -0.38672,-1.22977 -0.58594,-1.86328 -0.26039,-0.80824 -0.52078,-1.61649 -0.78906,-2.44922 -0.25524,-0.80051 -0.51047,-1.60102 -0.77344,-2.42578 -0.83988,-2.48897 -0.83988,-2.48897 -2.85156,-5.26172 -0.0142,0.77344 -0.0284,1.54687 -0.043,2.34375 -0.32197,7.03101 -1.16984,12.3013 -5.95703,17.65625 -8.52119,7.27556 -22.42179,8.38113 -33.1875,10.625 -0.72883,0.15252 -1.45765,0.30504 -2.20856,0.46219 -20.10831,4.18356 -39.03866,5.44065 -59.60394,4.91281 -1.08765,-0.0198 -2.17529,-0.0396 -3.2959,-0.0601 -19.30452,-0.463 -19.30452,-0.463 -25.8291,-6.31494 -1.31101,-1.52526 -2.60372,-3.06648 -3.875,-4.625 -0.89461,-0.66 -1.78922,-1.32 -2.71094,-2 -2.28906,-2 -2.28906,-2 -2.88281,-4.22657 0.6142,-15.71319 7.62571,-27.78649 18.59375,-38.77343 0.60328,-0.61489 1.20656,-1.22977 1.82813,-1.86328 4.12233,-3.8983 8.73667,-6.91713 13.54687,-9.88672 0.60022,-0.37713 1.20044,-0.75427 1.81885,-1.14283 8.1661,-4.87198 17.29641,-6.57865 26.55615,-8.23217 1.33031,-0.2533 1.33031,-0.2533 2.6875,-0.51172 26.92605,-4.88516 62.11719,-7.78376 84.375,11.01172 z"
     fill="#fdfcfc"
     id="path5" />
  <path
     d="m 286.70435,236.71423 c 11.85805,-0.76504 24.45121,4.31853 34.8789,9.46484 5.61369,2.69889 11.44804,4.90303 17.23438,7.19922 1.14154,0.45335 2.28309,0.9067 3.45923,1.37378 2.74168,1.08648 5.48437,2.17034 8.22827,3.25122 0,0.33 0,0.66 0,1 -0.61819,0.0344 -1.23637,0.0688 -1.87329,0.10425 -19.97771,1.19588 -40.89756,4.18628 -55.12671,19.89575 -5.35588,7.06663 -8.87273,14.74229 -12,23 0.81404,-0.45053 0.81404,-0.45053 1.64453,-0.91016 0.71543,-0.38027 1.43086,-0.76054 2.16797,-1.15234 0.70769,-0.38285 1.41539,-0.7657 2.14453,-1.16016 2.04297,-0.77734 2.04297,-0.77734 5.04297,0.22266 -0.66,1.11375 -1.32,2.2275 -2,3.375 -4.6582,10.49338 -2.98745,25.18294 1,35.625 6.50936,15.34777 15.91479,27.91479 27.6875,39.6875 2.95432,2.95433 5.62922,6.11286 8.3125,9.3125 -0.66,0.99 -1.32,1.98 -2,3 -12.75043,1.94028 -26.29064,-7.14896 -36.0625,-14.3125 -5.57164,-4.2942 -10.81938,-8.86517 -15.9375,-13.6875 -0.60199,-0.54914 -1.20399,-1.09828 -1.82422,-1.66406 -7.47954,-7.07854 -13.55871,-15.74893 -19.17578,-24.33594 -2.39073,2.9319 -3.84108,5.72144 -5.1875,9.25 -0.34418,0.89203 -0.68836,1.78407 -1.04297,2.70313 -0.25395,0.67547 -0.50789,1.35094 -0.76953,2.04687 -2.17734,-1.704 -2.94703,-2.80404 -3.67578,-5.5 -0.44831,-4.83957 -0.5085,-9.64193 -0.51172,-14.5 -0.0122,-0.97195 -0.0245,-1.94391 -0.0371,-2.94531 -0.0104,-5.08889 0.18932,-9.29227 2.22461,-14.05469 -10.43479,4.38483 -18.10127,10.4598 -25.65235,18.83203 -1.34765,1.16797 -1.34765,1.16797 -4.34765,1.16797 -0.57685,-11.42156 -0.32709,-20.57452 5,-31 0.53109,-1.05058 1.06218,-2.10117 1.60937,-3.18359 4.17421,-7.66867 9.0852,-13.94613 16.39063,-18.81641 -3.95496,-2.61537 -8.16828,-2.44264 -12.75,-2.625 -0.79278,-0.0387 -1.58555,-0.0773 -2.40235,-0.11719 -1.94885,-0.0939 -3.89822,-0.17694 -5.84765,-0.25781 6.96431,-16.27489 30.53903,-27.42153 46.15381,-33.89258 8.13703,-3.10019 16.42097,-5.2629 25.04541,-6.39648 z"
     fill="#e69428"
     id="path6" />
  <path
     d="m 65.505127,390.00329 c 1.15332,1.87915 1.15332,1.87915 2.078125,4.34765 0.351833,0.90726 0.703667,1.81452 1.066162,2.74927 0.364885,0.97864 0.729771,1.95728 1.105713,2.96558 0.793589,2.02784 1.591805,4.05388 2.394531,6.07812 0.396548,1.00096 0.793096,2.00192 1.20166,3.03321 7.270045,17.80745 17.577016,34.52272 29.153812,49.82617 0.46084,0.61037 0.92168,1.22074 1.39648,1.84961 4.71434,6.20646 9.42587,12.31258 15.09961,17.68554 2.38161,2.31975 4.42093,4.87691 6.50391,7.46485 -4.97794,-1.65411 -9.95106,-3.32088 -14.91797,-5.00781 -2.08983,-0.70579 -4.17967,-1.41152 -6.26953,-2.11719 -1.05381,-0.35965 -2.10762,-0.7193 -3.19336,-1.08985 -1.534309,-0.51626 -1.534309,-0.51626 -3.099612,-1.04296 -1.375147,-0.46624 -1.375147,-0.46624 -2.778076,-0.9419 -2.898653,-0.84618 -5.756358,-1.36056 -8.741455,-1.80029 0.348593,10.45778 5.224313,18.83109 11.117187,27.28125 0.882813,1.71875 0.882813,1.71875 0.882813,5.71875 -16.674364,0.85146 -30.682955,-3.96174 -46,-10 1.623769,18.66123 6.929539,35.13189 20.894531,48.30078 4.806494,3.87908 9.961577,7.28801 15.105469,10.69922 -5.541207,3.21416 -11.674864,2.78101 -17.777344,1.34766 -22.446376,-7.5036 -38.315594,-26.93329 -48.910156,-47.22266 -3.188889,-6.52793 -5.517929,-13.0913 -7.3125,-20.125 -0.178052,-0.64453 -0.356104,-1.28906 -0.539551,-1.95313 -1.651534,-6.48304 -1.759274,-12.75723 -1.710449,-19.42187 -0.0077,-1.07895 -0.01547,-2.15789 -0.02344,-3.26953 0.0026,-1.03254 0.0052,-2.06508 0.0078,-3.12891 0.0023,-0.93247 0.0045,-1.86495 0.0068,-2.82568 0.25884,-2.40088 0.25884,-2.40088 2.25884,-5.40088 0.605859,0.59168 1.211719,1.18336 1.835938,1.79297 5.651661,5.32995 11.005582,9.1761 18.164062,12.20703 -0.524004,-1.51981 -0.524004,-1.51981 -1.058594,-3.07031 -0.459878,-1.35148 -0.9195,-2.70305 -1.378906,-4.05469 -0.230098,-0.66516 -0.460195,-1.33031 -0.697266,-2.01563 -4.8111,-14.22412 -3.810974,-28.19396 2.134766,-41.85937 2.061156,-3.90164 4.369247,-7.46167 7,-11 0.763125,-1.05188 1.52625,-2.10375 2.3125,-3.1875 15.246355,-15.95549 15.246355,-15.95549 22.6875,-12.8125 z"
     fill="#fbfbfb"
     id="path7" />
  <path
     d="m 392.81372,152.31579 c 14.80241,11.37811 24.46185,28.7262 28.22265,46.92578 0.60393,4.84653 0.79004,9.63071 0.84375,14.51172 0.014,0.87535 0.028,1.75071 0.0425,2.65259 -0.0846,11.47146 -4.84618,23.99465 -12.60498,32.53491 -7.36727,6.72592 -16.9926,9.45673 -26.74609,9.33984 -13.84573,-1.25228 -25.68047,-9.51154 -35.06641,-19.27734 -8.24686,-9.94523 -13.41087,-21.67961 -17,-34 -0.34031,-1.10215 -0.34031,-1.10215 -0.6875,-2.22656 -3.58759,-13.30399 -1.84738,-28.31604 4.375,-40.52344 5.36411,-9.04122 11.27752,-15.58306 21.3125,-19.25 13.65661,-3.30878 26.17658,1.27362 37.3086,9.3125 z"
     fill="#fbfbfb"
     id="path8" />
  <path
     d="m 607.94263,467.00329 c 2.28906,1.38281 2.28906,1.38281 4.5625,3 0.87398,0.61617 1.74797,1.23234 2.64843,1.86719 7.29692,5.49943 12.58998,10.84442 14.35157,20.13281 1.21112,11.57051 -3.19406,20.87041 -10,30 -12.60583,15.29322 -32.226,23.4225 -50,31 -0.94489,0.41508 -1.88977,0.83015 -2.86328,1.25781 -6.0937,2.46858 -12.39403,3.73108 -18.82422,4.99219 -0.89179,0.17563 -1.78358,0.35127 -2.7024,0.53223 -14.50688,2.6747 -14.50688,2.6747 -19.7351,-0.84473 -8.30609,-5.79797 -13.34997,-14.08998 -15.57032,-23.90625 -0.50574,-3.37163 -0.42625,-6.62752 -0.30468,-10.03125 1.77111,0.47811 3.54188,0.95753 5.3125,1.4375 0.98613,0.26683 1.97226,0.53367 2.98828,0.80859 1.91439,0.5347 3.81355,1.12535 5.69922,1.75391 2.35261,0.0951 4.70797,0.12987 7.0625,0.125 1.2491,0.003 2.4982,0.005 3.78515,0.008 3.05435,0.0867 3.05435,0.0867 5.15235,-1.13281 0.0206,-1.19625 0.0412,-2.3925 0.0625,-3.625 0.0116,-0.67289 0.0232,-1.34578 0.0352,-2.03907 -0.053,-2.43593 -0.053,-2.43593 -0.58203,-5.20312 -1.06455,-6.4679 -1.72361,-13.34921 0.92187,-19.4453 4.85444,-5.09125 9.61496,-9.85015 15.9375,-13.0625 3.90066,-1.99412 6.67386,-4.44868 9.8125,-7.5 11.58085,-10.72955 26.88814,-17.16686 42.25,-10.125 z"
     fill="#e59225"
     id="path9" />
  <path
     d="m 106.50513,636.00329 c 11.22,0 22.44,0 34,0 -2,13 -2,13 -3,19 -0.75657,10.65016 0.43342,19.75487 7.33593,28.1875 6.2038,6.75719 13.86906,12.43158 23.28907,13.05078 8.0935,0.20078 14.57862,-0.16229 22.16015,-3.32031 3.11291,-1.29019 4.90205,-1.71016 8.21485,-0.91797 9.86995,5.93991 16.39199,15.17597 20,26 0.5437,6.41568 -0.43901,10.61256 -4,16 -2.5625,3 -2.5625,3 -5,5 -0.99,0 -1.98,0 -3,0 -0.99,-3.465 -0.99,-3.465 -2,-7 -0.66,0 -1.32,0 -2,0 -0.10313,0.70125 -0.20625,1.4025 -0.3125,2.125 -1.20681,5.04665 -3.29039,9.71528 -7.50782,12.95703 -8.01324,3.37476 -18.43997,1.23502 -26.22656,-1.77344 -27.02204,-11.97405 -45.86025,-35.3173 -58.95312,-61.30859 -0.57573,-1.12995 -0.57573,-1.12995 -1.16309,-2.28272 -5.5214,-11.08188 -9.114365,-21.2202 -6.83691,-33.71728 1.65,-3.96 3.3,-7.92 5,-12 z"
     fill="#fcfcfb"
     id="path10" />
  <path
     d="m 531.84107,132.96813 c 17.65133,8.0653 28.16494,25.44061 34.79297,43.03125 3.57226,11.33807 5.97346,27.83102 0.68359,38.9414 -3.25564,5.27323 -6.99905,8.03376 -12.8125,10.0625 -10.39331,1.39225 -19.05527,-1.73546 -27.5625,-7.5625 -15.95513,-12.34136 -26.72816,-30.5596 -30.4375,-50.4375 -1.05331,-10.01515 -1.59331,-20.77484 5,-29 8.92936,-9.46751 18.47175,-9.93558 30.33594,-5.03515 z"
     fill="#fafafa"
     id="path11" />
  <path
     d="m 278.50513,513.00329 c 9.07332,4.55292 15.24034,11.64907 19,21 2.1764,6.92359 2.33995,15.36321 -1,21.875 -8.07624,12.25977 -23.03062,18.50188 -36.875,21.8125 -14.39882,1.43988 -25.49933,-1.98097 -37.125,-10.6875 -2.67127,-2.26436 -5.26019,-4.58291 -7.8086,-6.98438 -2.12545,-2.03739 -2.12545,-2.03739 -4.42968,-3.61718 -1.76172,-1.39844 -1.76172,-1.39844 -2.51172,-4.02344 -0.12375,-1.67063 -0.12375,-1.67063 -0.25,-3.375 -0.11215,-1.09635 -0.11215,-1.09635 -0.22657,-2.21485 -0.28387,-4.4897 -0.27596,-6.16666 2.66407,-9.78515 0.84562,-0.66 1.69125,-1.32 2.5625,-2 0.33,-0.33 0.66,-0.66 1,-1 3.4938,-0.17034 6.98092,-0.29707 10.47851,-0.3418 5.21526,-0.1945 8.5032,-1.02759 12.52149,-4.6582 1.19887,-2.66474 1.19887,-2.66474 1.625,-5.5625 0.93885,-5.01404 0.93885,-5.01404 3.05395,-7.06763 2.9214,-1.7242 4.9126,-1.78257 8.2937,-1.84643 1.71993,-0.0464 1.71993,-0.0464 3.47461,-0.0937 1.19303,-0.0181 2.38606,-0.0361 3.61524,-0.0547 2.36597,-0.051 4.73186,-0.10548 7.09765,-0.16406 1.04809,-0.0176 2.09618,-0.0351 3.17603,-0.0532 4.24525,-0.25134 7.31087,-1.72198 11.66382,-1.15771 z"
     fill="#fcfcfc"
     id="path12" />
  <path
     d="m 471.677,335.75329 c 8.41529,6.16632 17.30887,14.16148 20.82812,24.25 -0.25235,2.86595 -0.50416,4.47582 -2.5039,6.58984 -14.85696,9.7261 -31.42537,13.28203 -48.96094,10.94922 -17.28031,-3.86025 -32.07702,-16.35818 -41.83203,-30.79297 -4.46907,-7.20586 -8.09633,-14.39075 -9.70313,-22.74609 27.35466,-9.81962 58.47629,-4.51032 82.17188,11.75 z"
     fill="#ed7066"
     id="path13" />
  <path
     d="m 607.94263,467.00329 c 2.28906,1.38281 2.28906,1.38281 4.5625,3 1.31097,0.92426 1.31097,0.92426 2.64843,1.86719 7.29692,5.49943 12.58998,10.84442 14.35157,20.13281 1.21112,11.57051 -3.19406,20.87041 -10,30 -7.30143,8.85799 -17.82293,15.79838 -28,21 -0.66,0 -1.32,0 -2,0 0.33,-0.94875 0.66,-1.8975 1,-2.875 1.30665,-4.68297 1.78636,-9.30534 1,-14.125 -3.16673,-3.90563 -8.16408,-5.61788 -12.69532,-7.65625 -2.62212,-1.52883 -3.71122,-2.77358 -5.30468,-5.34375 -0.35303,-2.33423 -0.35303,-2.33423 -0.33594,-4.87891 -0.0129,-0.92103 -0.0258,-1.84207 -0.0391,-2.79101 0,-1.93231 0.008,-3.86463 0.0234,-5.79688 -0.0436,-2.59214 -0.12787,-4.99286 -0.64844,-7.5332 -2.12852,-2.17407 -2.12852,-2.17407 -5,-3 -0.81082,-0.38543 -1.62164,-0.77086 -2.45703,-1.16797 -0.7773,-0.33645 -1.55461,-0.67289 -2.35547,-1.01953 -0.79019,-0.34418 -1.58039,-0.68836 -2.39453,-1.04297 -0.88752,-0.38092 -0.88752,-0.38092 -1.79297,-0.76953 11.67344,-14.74541 30.41243,-26.82235 49.4375,-18 z"
     fill="#fcfcfb"
     id="path14" />
  <path
     d="m 544.02466,238.65954 c 2.74252,2.48925 4.31514,4.31457 4.91406,8.04297 0.0149,11.3605 -3.22466,17.77179 -10.99219,26 -6.84499,6.45072 -14.01187,10.84052 -23.57031,10.61328 -14.4977,-1.57798 -29.21077,-9.5623 -38.79297,-20.50781 -3.63853,-4.97266 -5.53778,-9.58168 -5.07812,-15.80469 1.47123,-5.3595 4.74393,-7.84163 9.33984,-10.60938 17.8829,-9.34847 47.09522,-9.30646 64.17969,2.26563 z"
     fill="#2f2f2f"
     id="path15" />
  <path
     d="m 467.19263,666.12829 c 8.30422,3.14135 14.63338,8.84996 20.95312,14.92187 2.38987,1.97837 4.43357,2.97786 7.35938,3.95313 0,0.33 0,0.66 0,1 -0.54786,0.11215 -1.09571,0.2243 -1.66016,0.33984 -16.35886,4.06977 -31.81031,16.07714 -40.87891,30.14453 -5.2453,9.03202 -7.44181,17.09619 -8.46093,27.51563 -11.9273,-9.33441 -20.75099,-20.67001 -23,-36 -0.0677,-2.61482 -0.095,-5.19979 -0.0625,-7.8125 0.005,-0.69287 0.009,-1.38574 0.0137,-2.09961 0.0117,-1.696 0.0296,-3.39196 0.0488,-5.08789 1.18336,0.0348 2.36672,0.0696 3.58593,0.10547 10.4329,0.21408 18.98188,-0.24134 28.41407,-5.10547 -0.59545,-3.80035 -2.3232,-5.94642 -4.75,-8.875 -0.71672,-0.87399 -1.43344,-1.74797 -2.17188,-2.64844 -1.23285,-1.46922 -2.47057,-2.93441 -3.71875,-4.39062 -3.35937,-3.91928 -3.35937,-3.91928 -3.35937,-6.08594 6.85909,-3.42955 20.4697,-1.82576 27.6875,0.125 z"
     fill="#e69327"
     id="path16" />
  <path
     d="m 161.50513,625.00329 c -0.62649,1.09699 -1.25297,2.19398 -1.89844,3.32422 -0.82569,1.45433 -1.6512,2.90876 -2.47656,4.36328 -0.61875,1.08184 -0.61875,1.08184 -1.25,2.18555 -3.48332,6.15198 -5.67919,10.84173 -5.8125,18.06445 -0.04,1.18465 -0.0799,2.3693 -0.1211,3.58984 0.73177,4.54921 2.16548,6.3876 5.5586,9.47266 3.37502,1.23148 3.37502,1.23148 7.25,1.625 0.71365,0.1057 1.42731,0.2114 2.16259,0.32031 1.60804,0.23728 3.21774,0.46349 4.82862,0.68067 4.25254,0.57653 8.49613,1.20766 12.73828,1.85595 2.24083,0.34189 4.48371,0.67063 6.72851,0.98535 1.03222,0.15517 2.06444,0.31035 3.12793,0.47022 0.92346,0.13277 1.84691,0.26555 2.79834,0.40234 2.61411,0.72947 3.66425,1.58819 5.36573,3.66016 -1.93546,1.14927 -3.87344,2.2943 -5.8125,3.4375 -1.07895,0.63808 -2.15789,1.27617 -3.26953,1.93359 -2.91797,1.62891 -2.91797,1.62891 -5.91797,2.62891 2.18517,2.40575 4.25919,3.79535 7.1875,5.1875 0.71543,0.34418 1.43086,0.68836 2.16797,1.04297 0.54269,0.25394 1.08539,0.50789 1.64453,0.76953 -11.15122,5.66492 -22.37511,8.3828 -34.8086,5.30469 -2.24647,-0.92663 -4.16348,-1.96933 -6.1914,-3.30469 -1.02287,-0.65356 -1.02287,-0.65356 -2.06641,-1.32031 -8.0071,-5.56091 -14.23636,-12.41266 -16.48828,-22.05469 -1.86154,-10.97326 0.0519,-23.11676 3.55469,-33.625 -10.89,0 -21.78,0 -33,0 4,-7 4,-7 5.76684,-8.40015 3.29497,-0.88507 6.57315,-1.05423 9.96363,-1.19751 0.74985,-0.0392 1.49971,-0.0784 2.27229,-0.11876 2.39458,-0.12374 4.78952,-0.23547 7.18474,-0.34608 3.13952,-0.15364 6.27876,-0.31254 9.41797,-0.47266 0.74732,-0.0367 1.49464,-0.0734 2.26461,-0.11123 3.8943,-0.20007 7.74904,-0.49058 11.6182,-0.97471 3.51172,-0.3789 3.51172,-0.3789 5.51172,0.6211 z"
     fill="#e59229"
     id="path17" />
  <path
     d="m 245.50513,492.00329 c 0,0.66 0,1.32 0,2 0.60328,0.27586 1.20656,0.55172 1.82812,0.83594 2.17188,1.16406 2.17188,1.16406 4.92188,3.78906 6.95054,6.1614 16.63373,10.08942 25.25,13.375 0,0.33 0,0.66 0,1 -8.19569,2.5233 -16.27858,2.3531 -24.79688,2.39062 -1.68609,0.0348 -1.68609,0.0348 -3.40625,0.0703 -1.01739,0.008 -2.03478,0.0164 -3.08301,0.0249 -3.40262,0.64466 -4.58208,1.84067 -6.71386,4.51417 -0.71262,2.20389 -0.71262,2.20389 -0.9375,4.5 -0.64748,3.54652 -0.88939,4.32688 -3.5625,7 -4.95231,2.97138 -9.46112,2.74431 -15.11524,2.7539 -4.05598,0.13391 -5.98418,0.46921 -9.4082,2.83594 -2.49792,3.67777 -2.49483,5.81922 -2.28906,10.22266 0.0451,1.25426 0.0902,2.50851 0.13672,3.80078 0.058,0.95262 0.11601,1.90523 0.17578,2.88672 -3.46547,-3.16107 -5.8782,-6.68063 -8.25,-10.6875 -0.57718,-0.96728 -0.57718,-0.96728 -1.16602,-1.9541 -4.85702,-8.31099 -9.53549,-17.21292 -12.58398,-26.3584 5.875,0.875 5.875,0.875 7,2 7.43616,0.71501 14.48416,1.00576 20.90625,-3.17578 4.30993,-3.75511 7.67329,-8.27233 11.09375,-12.82422 5.78715,-7.57372 10.66534,-9.76201 20,-9 z"
     fill="#e59125"
     id="path18" />
  <path
     d="m 247.50513,82.003288 c 0.66,0 1.32,0 2,0 0,0.66 0,1.32 0,2 0.57363,0.250078 1.14726,0.500156 1.73828,0.757813 8.40875,4.618278 15.04983,14.34427 20.26172,22.242189 0,0.66 0,1.32 0,2 -7.24998,0.28308 -13.90962,-0.49026 -21,-2 1.28691,3.66324 2.76497,6.19603 5.375,9.0625 0.61746,0.68449 1.23492,1.36898 1.87109,2.07422 1.36186,1.44679 2.76831,2.85167 4.19141,4.23828 1.5625,1.625 1.5625,1.625 1.5625,3.625 -23.43643,11 -23.43643,11 -27,11 0.6903,3.14921 0.6903,3.14921 3.28515,4.38672 0.91653,0.42926 1.83305,0.85851 2.77735,1.30078 0.9191,0.43699 1.8382,0.87398 2.78515,1.32422 0.71028,0.32613 1.42055,0.65226 2.15235,0.98828 -1.38542,4.15625 -4.18252,5.04443 -7.875,6.9375 -0.67604,0.35191 -1.35207,0.70383 -2.04859,1.0664 -15.33433,7.83308 -15.33433,7.83308 -23.07641,6.9961 -1.625,-2.75 -1.625,-2.75 -3,-6 1.22907,-3.88676 4.07105,-6.10406 7,-8.8125 17.34039,-16.76659 26.02453,-39.61869 29,-63.187502 z"
     fill="#e48e23"
     id="path19" />
  <path
     d="m 529.19263,68.565788 c 1.12712,-0.0098 2.25425,-0.01966 3.41552,-0.02979 11.00394,0.110794 22.68468,1.989317 31.89698,8.467285 1.27343,2.160156 1.27343,2.160156 2,4 -1.49994,1.499941 -2.9466,1.316077 -5.03516,1.535156 -0.80889,0.08701 -1.61777,0.174024 -2.45117,0.263672 -0.85014,0.08701 -1.70028,0.174024 -2.57617,0.263672 -0.85401,0.09088 -1.70801,0.181758 -2.58789,0.275391 -2.11613,0.224616 -4.23282,0.443861 -6.34961,0.662109 3.63703,3.707095 7.40857,7.069483 11.42578,10.351562 1.57422,1.648438 1.57422,1.648438 1.57422,4.648438 -5.7776,0.120367 -11.2796,-0.167942 -17,-1 0.43312,0.603281 0.86625,1.206562 1.3125,1.828125 0.55687,0.799217 1.11375,1.598437 1.6875,2.421877 0.83531,1.18336 0.83531,1.18336 1.6875,2.39062 1.3125,2.35938 1.3125,2.35938 1.3125,6.35938 -3.13781,-0.61615 -5.25472,-1.65453 -7.8711,-3.47656 -0.73363,-0.50306 -1.46727,-1.00612 -2.22314,-1.52442 -1.15992,-0.80389 -1.15992,-0.80389 -2.34326,-1.62402 -7.30332,-4.977585 -14.66265,-9.411117 -22.5625,-13.375002 1,-3 1,-3 3.43359,-4.386719 0.99129,-0.429258 1.98258,-0.858515 3.00391,-1.300781 0.98871,-0.436992 1.97742,-0.873984 2.99609,-1.324219 2.56641,-0.988281 2.56641,-0.988281 4.56641,-0.988281 0,-0.99 0,-1.98 0,-3 -0.74508,-0.122461 -1.49016,-0.244922 -2.25782,-0.371094 -5.2095,-0.875502 -10.41306,-1.784529 -15.61718,-2.691406 -1.06993,-0.186269 -2.13985,-0.372539 -3.24219,-0.564453 -2.62764,-0.45749 -5.25524,-0.915179 -7.88281,-1.373047 1,-2 1,-2 3.42968,-3.070312 8.77985,-2.687707 17.07855,-3.330717 26.25782,-3.367188 z"
     fill="#e28e22"
     id="path20" />
  <path
     d="m 399.50513,194.00329 c 6.37694,2.51599 10.50942,7.22666 14,13 2.19746,6.59238 2.295,15.26313 -0.6875,21.625 -2.3154,3.84801 -5.29934,6.36841 -9.3125,8.375 -4.95482,0.5436 -8.87126,0.56437 -13.375,-1.6875 -5.39687,-4.75438 -9.19783,-9.84529 -10.09375,-17.11719 -0.0338,-1.35639 -0.0436,-2.71356 -0.0312,-4.07031 0.004,-0.70673 0.008,-1.41346 0.0129,-2.1416 0.19292,-5.90902 1.43956,-9.72288 5.48706,-13.9834 0.7425,-0.825 1.485,-1.65 2.25,-2.5 4.00328,-2.18361 7.29366,-2.34209 11.75,-1.5 z"
     fill="#30302f"
     id="path21" />
  <path
     d="m 548.50513,174.00329 c 6.35042,2.1168 10.17279,6.58808 13.26562,12.36328 2.7852,6.30593 4.19284,12.17554 2.00391,18.87109 -1.41325,3.16106 -2.86656,5.38636 -5.39453,7.76563 -5.10503,1.77566 -10.10669,2.26881 -15.125,-0.0312 -6.18779,-4.21895 -10.34226,-10.58879 -11.75,-17.96875 -0.55702,-6.39501 -0.24583,-11.40374 3,-17 4.06386,-4.66149 8.18083,-4.82542 14,-4 z"
     fill="#2f302f"
     id="path22" />
  <path
     d="m 372.50513,564.00329 c 14.79997,1.76909 26.62184,16.28336 36.35547,26.61328 1.95102,2.83154 2.39949,4.98019 2.64453,8.38672 -1,1 -1,1 -3.9375,1.125 -5.98214,-0.93165 -9.90406,-6.10474 -14.0625,-10.125 -1.30563,-1.11229 -2.61765,-2.21713 -3.9375,-3.3125 -3.54231,-3.08593 -6.74989,-6.43072 -9.9375,-9.875 -0.47688,-0.51152 -0.95375,-1.02303 -1.44507,-1.55005 -5.67993,-6.23681 -5.67993,-6.23681 -5.67993,-11.26245 z"
     fill="#f7f7f7"
     id="path23" />
  <path
     d="m 300.50513,469.00329 c 2.62187,1.04875 3.79371,1.64931 5.25,4.125 0.2475,0.61875 0.495,1.2375 0.75,1.875 -7.94244,7.90941 -16.27559,13.50896 -26,19 -0.91008,0.59039 -1.82016,1.18078 -2.75782,1.78906 -2.24218,1.21094 -2.24218,1.21094 -5.24218,0.64844 -3.08694,-1.47916 -5.37142,-3.26625 -8,-5.4375 0.5576,-0.31115 1.1152,-0.6223 1.68969,-0.94287 11.75976,-6.58353 23.23736,-13.369 34.31031,-21.05713 z"
     fill="#f6f6f6"
     id="path24" />
  <path
     d="m 588.50513,205.00329 c 4.21562,1.61363 6.90193,4.74302 9.875,8 0.53012,0.57798 1.06025,1.15597 1.60644,1.75146 10.51856,11.73075 10.51856,11.73075 10.51856,18.24854 -4.35237,-0.65945 -7.97206,-2.26382 -12,-4 -5.50658,-1.9435 -10.73494,-2.36898 -16.52344,-2.65625 -1.2259,-0.17016 -1.2259,-0.17016 -2.47656,-0.34375 -0.33,-0.66 -0.66,-1.32 -1,-2 0.66,0 1.32,0 2,0 0.27715,-0.56977 0.55429,-1.13953 0.83984,-1.72656 1.15971,-2.27257 2.43014,-4.44924 3.72266,-6.64844 1.99296,-3.5463 3.12109,-6.51166 3.4375,-10.625 z"
     fill="#e28d24"
     id="path25" />
  <path
     d="m 525.13013,238.25329 c 3.51318,1.82165 3.94529,2.32437 5.375,5.75 -3.56243,0.0583 -7.12474,0.0937 -10.6875,0.125 -1.51111,0.0251 -1.51111,0.0251 -3.05274,0.0508 -0.97646,0.006 -1.95293,0.0129 -2.95898,0.0195 -0.8955,0.0105 -1.79099,0.0209 -2.71363,0.0317 -2.84884,-0.25002 -4.9961,-1.04689 -7.58715,-2.22705 0.8125,-1.9375 0.8125,-1.9375 2,-4 6.15733,-2.05244 13.47679,-1.82573 19.625,0.25 z"
     fill="#f3f3f3"
     id="path26" />
  <path
     d="m 191.50513,33.003288 c -1.65,1.65 -3.3,3.3 -5,5 -0.99,-0.66 -1.98,-1.32 -3,-2 0.33,-0.99 0.66,-1.98 1,-3 3.13349,-1.044499 3.98968,-0.934236 7,0 z"
     fill="#494848"
     id="path27" />
  <path
     d="m 607.50513,228.00329 c 0.66,0 1.32,0 2,0 0.33,1.65 0.66,3.3 1,5 -3.37463,-0.54724 -5.08235,-1.0549 -8,-3 1.65,0 3.3,0 5,0 0,-0.66 0,-1.32 0,-2 z"
     fill="#e49836"
     id="path28" />
  <path
     d="m 367.50513,459.00329 c 0.99,0.495 0.99,0.495 2,1 0.625,3.0625 0.625,3.0625 1,6 -0.66,0 -1.32,0 -2,0 -0.33,0.99 -0.66,1.98 -1,3 0,-3.3 0,-6.6 0,-10 z"
     fill="#393838"
     id="path29" />
  <path
     d="m 509.50513,525.00329 c 0.99,0.33 1.98,0.66 3,1 -0.33,2.64 -0.66,5.28 -1,8 -0.66,-0.33 -1.32,-0.66 -2,-1 0,-2.64 0,-5.28 0,-8 z"
     fill="#da8621"
     id="path30" />
  <path
     d="m 206.50513,542.00329 c 0.33,0 0.66,0 1,0 0.33,3.96 0.66,7.92 1,12 -3,-3 -3,-3 -3.07422,-5.26172 0.12762,-0.80051 0.25523,-1.60102 0.38672,-2.42578 0.11988,-0.80824 0.23976,-1.61649 0.36328,-2.44922 0.10699,-0.61488 0.21398,-1.22977 0.32422,-1.86328 z"
     fill="#eda64f"
     id="path31" />
</svg>
